<svg width="20" height="20" viewBox="0 0 20 20" fill="none" xmlns="http://www.w3.org/2000/svg">
<g clip-path="url(#clip0_556_205)">
<path fill-rule="evenodd" clip-rule="evenodd" d="M3.70723 2.29289C3.3167 1.90237 2.68354 1.90237 2.29302 2.29289C1.90249 2.68342 1.90249 3.31658 2.29302 3.70711L16.293 17.7071C16.6835 18.0976 17.3167 18.0976 17.7072 17.7071C18.0978 17.3166 18.0978 16.6834 17.7072 16.2929L16.2341 14.8197C17.7716 13.5924 18.9391 11.9211 19.5425 9.99996C18.2682 5.94288 14.478 3 10.0003 3C8.37677 3 6.84357 3.38692 5.48791 4.07358L3.70723 2.29289ZM7.96825 6.55391L9.48213 8.0678C9.64742 8.02358 9.82114 8 10.0004 8C11.1049 8 12.0004 8.89543 12.0004 10C12.0004 10.1792 11.9768 10.353 11.9326 10.5182L13.4465 12.0321C13.7984 11.4366 14.0004 10.7419 14.0004 10C14.0004 7.79086 12.2095 6 10.0004 6C9.2585 6 8.5638 6.20197 7.96825 6.55391Z" fill="#898989"/>
<path d="M12.4542 16.6967L9.74978 13.9923C7.74025 13.8681 6.13232 12.2601 6.0081 10.2506L2.33504 6.57754C1.50075 7.57223 0.85649 8.73169 0.45813 10C1.73241 14.0571 5.52269 17 10.0003 17C10.847 17 11.6691 16.8948 12.4542 16.6967Z" fill="#898989"/>
</g>
<defs>
<clipPath id="clip0_556_205">
<rect width="20" height="20" fill="white"/>
</clipPath>
</defs>
</svg>
