<svg width="120" height="40" viewBox="0 0 120 40" fill="none" xmlns="http://www.w3.org/2000/svg">
<path fill-rule="evenodd" clip-rule="evenodd" d="M34.5461 12.769V29.5569L24.0395 35.6203L22.3243 34.6331C21.8827 34.0814 21.3263 33.247 21.1796 32.4017V25.2121L28.1358 20.9965C28.3841 20.8457 28.6196 20.6771 28.8423 20.4905C29.065 20.304 29.272 20.1013 29.4636 19.883C29.6553 19.6643 29.8291 19.4325 29.985 19.1875C30.1412 18.9426 30.2778 18.687 30.3946 18.4209L31.1087 16.7944L20.0682 23.2987L9.03107 16.7944L9.74554 18.4209C9.86236 18.687 9.9989 18.9426 10.1552 19.1875C10.311 19.4325 10.4848 19.6643 10.6765 19.883C10.8682 20.1013 11.0752 20.304 11.2979 20.4905C11.5206 20.6774 11.756 20.8457 12.0043 20.9965L18.9606 25.2121V32.3075C18.8423 33.1736 18.2731 34.0391 17.8174 34.6117L16.0573 35.6249H15.9707L5.4563 29.5569V12.769L20.0012 4.375L34.5461 12.769ZM16.0573 35.6249H20.0012H24.0317L24.0395 35.6203L24.0476 35.625H20.0522H16.0571L16.0573 35.6249ZM12.3967 11.6063L11.775 10.1916L18.4078 14.1053C18.5509 14.1892 18.6809 14.2904 18.7973 14.4086C18.9138 14.5269 19.0131 14.6584 19.0953 14.8026C19.1774 14.9468 19.2395 15.099 19.2814 15.2597C19.3238 15.4203 19.3446 15.5835 19.3439 15.7496V16.8233L14.3612 13.8468C14.1451 13.7157 13.9403 13.569 13.7464 13.4065C13.5529 13.2444 13.3726 13.0681 13.2061 12.8782C13.0396 12.688 12.8885 12.4865 12.7527 12.2733C12.6169 12.0601 12.4982 11.8377 12.3967 11.6063ZM20.8907 16.8222L25.8748 13.8468C26.3096 13.5832 26.6948 13.2605 27.03 12.8782C27.3651 12.4956 27.6349 12.0718 27.839 11.6063L28.4592 10.1916L21.8279 14.1053C21.6848 14.1892 21.5548 14.2904 21.4383 14.4083C21.3219 14.5266 21.2226 14.6576 21.1401 14.8018C21.0579 14.946 20.9959 15.0983 20.9535 15.2586C20.9112 15.4192 20.8904 15.5824 20.8907 15.7485V16.8222ZM10.4783 13.2042L11.1927 14.8306C11.3095 15.0968 11.4461 15.3523 11.602 15.5973C11.7582 15.8423 11.932 16.0741 12.1233 16.2928C12.315 16.5111 12.522 16.7137 12.7447 16.9003C12.9674 17.0869 13.2029 17.2555 13.4515 17.4063L19.1796 20.8286V19.5939C19.1804 19.4029 19.1566 19.2153 19.1081 19.0305C19.0595 18.8462 18.988 18.6709 18.8938 18.5048C18.7992 18.3391 18.6853 18.1883 18.5513 18.0525C18.4173 17.9163 18.268 17.8002 18.1037 17.7031L10.4783 13.2042ZM26.6879 17.4063L20.9579 20.8271V19.5924C20.9576 19.4018 20.9813 19.2142 21.0299 19.0295C21.0788 18.8451 21.1503 18.6698 21.2445 18.5041C21.3391 18.3384 21.4534 18.1876 21.5873 18.0521C21.7213 17.9163 21.8707 17.7999 22.0353 17.7031L29.659 13.2042L28.9459 14.8306C28.8291 15.0968 28.6929 15.3523 28.5367 15.5973C28.3808 15.8423 28.207 16.0741 28.0157 16.2928C27.8241 16.5111 27.617 16.7137 27.3943 16.9003C27.172 17.0869 26.9365 17.2555 26.6879 17.4063ZM19.1796 22.6832C19.1782 22.6821 19.1789 22.6788 19.1818 22.6788H19.1829C19.1822 22.6828 19.1807 22.6847 19.1796 22.6832Z" fill="#87BA1A"/>
<path d="M48.5724 11.3545V13.0669H46.3831V20.3621H44.608V13.0669H42.5023V11.3545H48.5724Z" fill="#151F28"/>
<path d="M55.6705 18.6015H52.6842L51.9498 20.3626H50.1991L54.2643 11H54.3618L58.4236 20.3626H56.3666L55.6705 18.6015ZM55.0823 17.1083L54.2121 14.9156L53.3072 17.1083H55.0823Z" fill="#151F28"/>
<path d="M68.775 11.355V20.7281H68.7262L62.423 15.0409L62.4613 20.3626H60.6619V11H60.735L67.0243 16.7777L66.9895 11.355H68.775Z" fill="#151F28"/>
<path d="M72.0291 11.3545H74.723C75.8716 11.3545 76.8165 11.5772 77.5596 12.0228C78.3018 12.4665 78.8422 13.0417 79.1815 13.7491C79.52 14.4548 79.6897 15.2109 79.6897 16.0184C79.6897 16.8842 79.4852 17.6473 79.0771 18.3086C78.6682 18.9681 78.12 19.4746 77.4308 19.8296C76.7417 20.1846 75.9847 20.3621 75.1615 20.3621H72.0291V11.3545ZM74.8552 18.6497C75.7784 18.6497 76.5094 18.413 77.048 17.9396C77.5857 17.4663 77.8554 16.7858 77.8554 15.8966C77.8554 15.1778 77.7058 14.607 77.4065 14.1842C77.1089 13.7595 76.7626 13.4663 76.3658 13.3036C75.9707 13.1391 75.5983 13.0565 75.2485 13.0565H73.8041V18.6497H74.8552Z" fill="#151F28"/>
<path d="M89.9666 20.3621H88.195V16.7041H84.168V20.3621H82.3929V11.3545H84.168V14.9882H88.195V11.3545H89.9666V20.3621Z" fill="#151F28"/>
<path d="M94.8124 17.0347C94.8124 17.3201 94.8977 17.5942 95.07 17.8561C95.2414 18.1163 95.4702 18.3277 95.7556 18.4896C96.041 18.6523 96.3473 18.7332 96.6745 18.7332C97.0243 18.7332 97.3462 18.6523 97.6386 18.4896C97.9327 18.3277 98.1642 18.1163 98.3312 17.8561C98.4983 17.5942 98.5818 17.3201 98.5818 17.0347V11.3545H100.333V17.0695C100.333 17.7151 100.169 18.2964 99.8418 18.8133C99.5163 19.331 99.0743 19.7347 98.5157 20.0245C97.9562 20.3151 97.3428 20.4595 96.6745 20.4595C96.0036 20.4595 95.3911 20.3151 94.8368 20.0245C94.2816 19.7347 93.8431 19.331 93.5211 18.8133C93.1983 18.2964 93.0374 17.7151 93.0374 17.0695V11.3545H94.8124V17.0347Z" fill="#151F28"/>
<path d="M108.261 20.3621L106.364 17.4976H105.177V20.3621H103.402V11.3545H106.131C107.249 11.3545 108.116 11.626 108.731 12.1689C109.348 12.7119 109.657 13.4524 109.657 14.3895C109.657 14.9447 109.539 15.465 109.305 15.9523C109.073 16.4378 108.717 16.818 108.237 17.0939L110.329 20.3621H108.261ZM105.177 15.7852H106.437C106.918 15.7852 107.267 15.6451 107.488 15.3641C107.709 15.0813 107.819 14.7776 107.819 14.4522C107.819 14.125 107.725 13.8135 107.537 13.5159C107.351 13.2166 106.989 13.0669 106.451 13.0669H105.177V15.7852Z" fill="#151F28"/>
<path d="M53.5674 28.5464C53.4465 28.4716 53.3517 28.3663 53.282 28.2297C53.2142 28.0931 53.1855 27.9513 53.195 27.8051C53.1898 27.283 53.2803 26.7322 53.4665 26.1518C53.5448 25.9178 53.6414 25.6715 53.7554 25.414C53.8711 25.1564 53.9694 24.958 54.0512 24.8188C54.1739 24.6169 54.3105 24.4385 54.4619 24.2828C54.6125 24.1279 54.7343 24.0244 54.8274 23.973C54.8831 23.9408 54.9605 23.9121 55.0606 23.886C55.1598 23.8582 55.2659 23.8442 55.3773 23.8442C55.4652 23.8442 55.5461 23.8538 55.621 23.8721C55.7271 23.8982 55.8315 23.9339 55.9342 23.98C56.036 24.027 56.1047 24.0661 56.1396 24.0983C56.1552 24.1244 56.1752 24.1557 56.1987 24.1923C56.224 24.2271 56.244 24.2584 56.2579 24.2863C56.2718 24.3124 56.2788 24.3402 56.2788 24.3698C56.2831 24.4142 56.2649 24.4673 56.2231 24.5299C56.1813 24.5908 56.1378 24.6204 56.0943 24.6204C56.0665 24.6204 56.0395 24.6056 56.0143 24.5751C55.9699 24.5081 55.9255 24.4586 55.882 24.4255C55.8376 24.3933 55.7915 24.3663 55.7428 24.3454C55.694 24.3228 55.6575 24.3037 55.6349 24.2897C55.5766 24.2549 55.4965 24.2375 55.3947 24.2375C55.3155 24.2375 55.2355 24.2506 55.1546 24.2758C55.0728 24.2993 55.0032 24.335 54.9457 24.3837C54.8666 24.4533 54.7691 24.5577 54.6534 24.697C54.5394 24.8362 54.4515 24.9667 54.3888 25.0868C54.1243 25.5514 53.9364 25.9882 53.825 26.3989C53.7902 26.5269 53.7502 26.6878 53.7067 26.8827C53.6623 27.0776 53.6336 27.2238 53.6197 27.3213C53.5935 27.484 53.5814 27.631 53.5814 27.7633C53.5814 27.9286 53.6075 28.0539 53.6614 28.1392C53.7171 28.2253 53.8085 28.268 53.9364 28.268C54.0243 28.268 54.133 28.2462 54.2636 28.2019C54.4097 28.1836 54.5751 28.0992 54.7613 27.9478C54.9466 27.7946 55.1006 27.6206 55.2242 27.4257C55.4234 27.055 55.5235 26.8053 55.5235 26.6774C55.5235 26.5895 55.48 26.5451 55.3947 26.5451C55.306 26.5364 55.1963 26.5312 55.0641 26.5312C54.9753 26.5312 54.9074 26.5295 54.8587 26.5242C54.81 26.5199 54.7656 26.5068 54.7265 26.486C54.696 26.4372 54.6812 26.3946 54.6812 26.3572C54.6812 26.3067 54.7099 26.2519 54.7682 26.1936C54.8283 26.1657 54.9492 26.1518 55.1302 26.1518C55.3878 26.1518 55.5896 26.1884 55.7358 26.2597C55.8724 26.325 55.9412 26.4599 55.9412 26.6635C55.9412 26.7609 55.9316 26.8471 55.9133 26.921C55.8733 27.095 55.7393 27.3543 55.5096 27.6972C55.4069 27.839 55.2555 27.993 55.0536 28.1601C54.8535 28.3254 54.6917 28.4316 54.5664 28.4803C54.3245 28.5917 54.1069 28.6474 53.912 28.6474C53.7745 28.6474 53.6597 28.6134 53.5674 28.5464Z" fill="#5CA74E"/>
<path d="M56.2181 28.1097C56.1807 28.0844 56.1555 28.061 56.1415 28.0401C56.1294 28.0174 56.1241 27.9835 56.1241 27.9391C56.1241 27.9 56.1259 27.866 56.1311 27.8382C56.145 27.6877 56.1781 27.5136 56.232 27.3161L56.2634 27.1839C56.2773 27.0725 56.3547 26.841 56.4966 26.4878C56.6375 26.1327 56.7524 25.8917 56.8411 25.7638C56.8759 25.7412 56.9125 25.729 56.9525 25.729C57.0099 25.729 57.0587 25.7499 57.0987 25.7917C57.1239 25.8082 57.137 25.8404 57.137 25.8891C57.137 25.9335 57.1204 25.9987 57.0883 26.084C57.0552 26.1702 56.9995 26.2981 56.9212 26.4669C56.902 26.5017 56.8725 26.5678 56.8307 26.6653C56.7889 26.7627 56.768 26.821 56.768 26.8393C56.768 26.8463 56.7698 26.8497 56.775 26.8497C56.7837 26.8497 56.7924 26.848 56.7994 26.8428C56.8081 26.8358 56.8176 26.8306 56.8272 26.8254C56.8759 26.7418 56.9943 26.627 57.1822 26.4808C57.3702 26.3346 57.499 26.2441 57.5686 26.2093C57.6008 26.191 57.6417 26.1736 57.6904 26.1571C57.7391 26.1388 57.7713 26.1249 57.7878 26.1153C57.8592 26.0805 57.9445 26.0631 58.0419 26.0631C58.102 26.0631 58.155 26.0736 58.202 26.0945C58.2481 26.1136 58.2803 26.1423 58.2995 26.1815C58.3038 26.2119 58.3151 26.2363 58.3343 26.2546C58.3552 26.2737 58.37 26.2841 58.3795 26.2859C58.3908 26.2859 58.3987 26.292 58.4039 26.3033C58.4082 26.3155 58.4108 26.3233 58.4108 26.3277C58.4108 26.3581 58.3934 26.3764 58.3586 26.3833C58.3238 26.3903 58.2594 26.3964 58.1672 26.4007C58.1185 26.406 58.0671 26.4173 58.0141 26.4356C57.9601 26.4521 57.907 26.473 57.854 26.4982C57.6077 26.64 57.4233 26.7514 57.3006 26.8323C57.1796 26.9115 57.0569 27.0194 56.9316 27.156C56.8829 27.21 56.8185 27.3048 56.7402 27.4414C56.7097 27.4719 56.6775 27.5528 56.6427 27.6851C56.6097 27.8156 56.594 27.8956 56.594 27.9252C56.5888 27.9391 56.5801 27.9652 56.5662 28.0018C56.554 28.0392 56.5357 28.0749 56.5105 28.1097C56.4565 28.1819 56.4113 28.2176 56.3747 28.2176C56.3347 28.2176 56.2825 28.1819 56.2181 28.1097Z" fill="#5CA74E"/>
<path d="M58.7032 28.2423C58.6492 28.2423 58.6066 28.2345 58.5744 28.218C58.5439 28.1997 58.5013 28.1657 58.4456 28.117C58.2994 27.9639 58.2263 27.8229 58.2263 27.6924C58.2263 27.6628 58.2281 27.6402 58.2333 27.6263C58.2446 27.5967 58.2489 27.5662 58.2472 27.5358C58.2446 27.5036 58.2437 27.4827 58.2437 27.4731C58.2272 27.4575 58.2194 27.4453 58.2194 27.4383C58.2194 27.4314 58.2228 27.4244 58.2298 27.4174C58.2385 27.4105 58.2455 27.4035 58.2507 27.3966C58.2785 27.3966 58.2872 27.3722 58.2785 27.3235C58.269 27.2869 58.2864 27.2077 58.3307 27.0868C58.3742 26.9667 58.4299 26.8553 58.4978 26.7527C58.5465 26.6743 58.6179 26.5751 58.7136 26.4568C58.8084 26.3367 58.8928 26.2445 58.9677 26.1818C59.0738 26.0896 59.1695 26.0209 59.2531 25.9765C59.3366 25.933 59.4288 25.8991 59.5315 25.8756C59.6194 25.8547 59.6794 25.8442 59.7125 25.8442C59.7421 25.8442 59.7691 25.8529 59.7926 25.8686C59.8178 25.8825 59.85 25.9095 59.89 25.9487C60.0083 26.0026 60.0901 26.0705 60.1371 26.154C60.1832 26.2358 60.2067 26.362 60.2067 26.5334C60.2067 26.8214 60.0893 27.1338 59.8552 27.4696C59.7551 27.6141 59.6603 27.7255 59.5698 27.8038C59.4811 27.8803 59.3653 27.963 59.2218 28.0509C59.1286 28.1188 59.0425 28.1675 58.9642 28.1971C58.8876 28.2249 58.8006 28.2406 58.7032 28.2423ZM59.3401 27.5393C59.4462 27.4209 59.5315 27.3095 59.5942 27.2051C59.6586 27.099 59.7203 26.9632 59.7786 26.7979C59.7995 26.7239 59.81 26.6334 59.81 26.5264C59.81 26.3942 59.7926 26.3193 59.7578 26.3002C59.7134 26.2793 59.669 26.2689 59.6255 26.2689C59.528 26.2689 59.4254 26.3132 59.3192 26.4011C59.1913 26.5108 59.0764 26.6465 58.9746 26.8083C58.872 26.9711 58.7693 27.1703 58.6649 27.407C58.6179 27.5001 58.5953 27.5915 58.5953 27.682C58.5953 27.7472 58.6109 27.7994 58.644 27.8386C58.6788 27.8786 58.7249 27.8977 58.7832 27.8977C58.9294 27.8977 59.1147 27.7785 59.3401 27.5393Z" fill="#5CA74E"/>
<path d="M60.8635 28.0432C60.7704 28.0432 60.6912 27.9719 60.6268 27.8274C60.5642 27.6813 60.5328 27.5107 60.5328 27.3158L60.5398 27.194C60.5398 27.0365 60.5502 26.9042 60.5711 26.7972C60.5937 26.691 60.6077 26.6249 60.6129 26.5988C60.6216 26.5762 60.6303 26.5379 60.6373 26.484C60.646 26.4283 60.6651 26.35 60.6929 26.2473C60.7277 26.0924 60.7626 25.9967 60.7974 25.9619C60.8322 25.9271 60.8739 25.9097 60.9227 25.9097C60.9549 25.9097 60.9836 25.9184 61.0097 25.934C61.0375 25.948 61.0593 25.9688 61.0758 25.9967C61.1036 26.0228 61.1176 26.0863 61.1176 26.1881C61.1176 26.2629 61.1106 26.336 61.0967 26.4074C61.0828 26.477 61.0654 26.5283 61.0445 26.5605C61.0306 26.5866 61.0097 26.7137 60.9818 26.9434C60.9653 27.1104 60.9522 27.2183 60.9435 27.2671C60.9383 27.2862 60.9366 27.3123 60.9366 27.3471C60.9366 27.4498 60.9679 27.5003 61.0306 27.5003C61.1324 27.5003 61.2759 27.3663 61.4621 27.0965C61.5848 26.9208 61.6718 26.7824 61.7232 26.6823C61.7736 26.5831 61.8259 26.4552 61.8798 26.2995C61.9007 26.2351 61.9198 26.1777 61.939 26.1289C61.9599 26.0802 61.979 26.0489 61.9981 26.035C62.019 26.0167 62.0503 26.0071 62.0921 26.0071C62.1356 26.0071 62.1878 26.028 62.2487 26.0698C62.3018 26.1211 62.3288 26.1829 62.3288 26.2542C62.3288 26.3291 62.3018 26.4196 62.2487 26.5257C62.1948 26.6327 62.1461 26.7798 62.1026 26.9677C62.0582 27.1557 62.0364 27.3019 62.0364 27.4063C62.0364 27.4881 62.0469 27.5386 62.0677 27.5594C62.0886 27.5786 62.1208 27.5873 62.1652 27.5873C62.2879 27.5873 62.4349 27.4994 62.6072 27.3228C62.6855 27.2418 62.79 27.1017 62.9205 26.9016C63.0527 26.6997 63.1189 26.5814 63.1189 26.5466C63.1189 26.5188 63.138 26.4805 63.178 26.4317C63.2007 26.4022 63.2215 26.3761 63.2407 26.3552C63.2616 26.3326 63.2912 26.3091 63.3312 26.2856L63.3834 26.2751C63.4182 26.2751 63.46 26.2995 63.5087 26.3482C63.527 26.3647 63.5383 26.3926 63.5435 26.4317C63.5478 26.4692 63.5505 26.5118 63.5505 26.5605C63.527 26.6397 63.4887 26.7415 63.4356 26.8668C63.3816 26.9921 63.3399 27.0739 63.3103 27.1104C63.2268 27.1757 63.1554 27.2566 63.098 27.3541C62.991 27.482 62.9074 27.5716 62.8474 27.6221C62.7891 27.6734 62.7508 27.7082 62.7325 27.7265C62.6438 27.8153 62.5481 27.8831 62.4436 27.9319C62.341 27.9806 62.2435 28.0049 62.1513 28.0049C62.0582 28.0049 61.9825 27.9832 61.925 27.9388C61.7876 27.8675 61.7197 27.7474 61.7197 27.5803C61.7197 27.5507 61.7145 27.5229 61.7058 27.4968C61.6962 27.4689 61.6892 27.4507 61.6849 27.4411C61.6196 27.4411 61.5674 27.4759 61.5283 27.5455C61.4656 27.6569 61.3586 27.7683 61.2081 27.8796C61.0567 27.9893 60.9418 28.0432 60.8635 28.0432Z" fill="#5CA74E"/>
<path d="M65.5627 28.7226C65.4209 28.6321 65.3156 28.5529 65.246 28.4859C65.1781 28.4206 65.1451 28.3606 65.1451 28.3049C65.1451 28.2475 65.1834 28.1962 65.2599 28.1518C65.2808 28.1379 65.3191 28.15 65.3748 28.1866C65.4305 28.224 65.4844 28.2692 65.5384 28.3223C65.6515 28.4285 65.8011 28.4824 65.9874 28.4824C66.0657 28.4824 66.1727 28.4668 66.3076 28.4372C66.4886 28.3832 66.6487 28.3067 66.7879 28.204C66.9271 28.1022 67.0602 27.9725 67.1881 27.8142C67.2664 27.708 67.3256 27.5905 67.3656 27.4626C67.4074 27.333 67.4283 27.2112 67.4283 27.0972C67.4283 26.9562 67.4013 26.8518 67.3482 26.7839C67.1716 26.5455 66.9201 26.4254 66.593 26.4254C66.4511 26.4254 66.318 26.4446 66.1927 26.4811L65.8099 26.5612C65.8003 26.5638 65.7794 26.5681 65.7472 26.5751C65.7167 26.5821 65.668 26.6786 65.601 26.864C65.5358 27.0502 65.4496 27.2938 65.3435 27.5949C65.2504 27.8646 65.1773 28.0535 65.1242 28.1622C65.0728 28.2692 65.025 28.3223 64.9815 28.3223C64.9371 28.3223 64.884 28.2736 64.8214 28.1761C64.7727 28.0978 64.7483 28.0291 64.7483 27.9708C64.7483 27.9151 64.7674 27.8542 64.8075 27.7863C64.8301 27.7472 64.8492 27.708 64.8631 27.668C64.8788 27.6288 64.8962 27.5731 64.9154 27.5009C64.971 27.3295 65.1364 26.9014 65.4131 26.2166C65.6889 25.5301 65.9047 25.0123 66.0604 24.6643C66.1718 24.412 66.2049 24.278 66.1614 24.264C66.1614 24.2527 66.1544 24.2344 66.1405 24.2083C66.1266 24.1805 66.1214 24.1596 66.1266 24.1457C66.1266 24.1205 66.1875 24.0813 66.311 24.0274C66.4363 23.9743 66.5277 23.9525 66.586 23.9612H66.6243C66.6817 23.9612 66.7113 23.9499 66.7113 23.9264C66.72 23.9264 66.7609 23.9229 66.8331 23.916C66.9071 23.9073 66.9863 23.9055 67.0698 23.9125C67.3639 23.9403 67.5927 24.0274 67.7555 24.1735C67.9199 24.3197 68 24.5138 67.9956 24.7548C67.993 24.8662 67.9164 25.0297 67.7659 25.2455C67.6145 25.4596 67.464 25.6345 67.3134 25.7711C67.2438 25.8337 67.1638 25.8999 67.0733 25.9695C66.9828 26.0374 66.9236 26.0791 66.8958 26.0948L67.0628 26.154C67.2786 26.2357 67.4492 26.3349 67.5745 26.4533C67.7015 26.5699 67.7903 26.7239 67.839 26.9162C67.8477 26.9606 67.8529 27.0015 67.8529 27.038C67.8529 27.1355 67.8355 27.246 67.8007 27.3687C67.7676 27.4922 67.732 27.6001 67.6928 27.6923C67.665 27.7202 67.6415 27.7498 67.6232 27.7794C67.6067 27.8098 67.5962 27.8298 67.5919 27.8385C67.5867 27.8577 67.5475 27.9255 67.4735 28.0439C67.3987 28.1605 67.3326 28.2527 67.2752 28.3223C67.0541 28.512 66.8575 28.639 66.6835 28.7017C66.4973 28.7852 66.2876 28.827 66.0535 28.827C65.8377 28.827 65.6741 28.7922 65.5627 28.7226ZM65.8899 26.1679C65.9386 26.1592 66.0361 26.14 66.1823 26.1122C66.3302 26.0843 66.4337 26.0591 66.492 26.0356C66.5007 26.0313 66.5286 26.0173 66.5756 25.9939C66.6217 25.9686 66.6695 25.9312 66.7183 25.8825C66.8227 25.785 66.9523 25.6414 67.1081 25.4509C67.263 25.2586 67.3761 25.095 67.4457 24.9601C67.5571 24.7791 67.6128 24.6469 67.6128 24.5634C67.6128 24.5059 67.5884 24.452 67.5397 24.4033C67.4814 24.3336 67.3448 24.2988 67.129 24.2988C66.9871 24.2988 66.8653 24.3119 66.7635 24.3371C66.7009 24.3563 66.6556 24.378 66.6278 24.4033C66.5999 24.4267 66.586 24.4624 66.586 24.5111C66.586 24.5764 66.5495 24.6451 66.4781 24.7165C66.4729 24.7426 66.4624 24.7678 66.4468 24.7931C66.4329 24.8166 66.4233 24.8305 66.4189 24.8348C66.4189 24.8488 66.392 24.9149 66.3389 25.0332C66.2693 25.1707 66.2031 25.3256 66.1405 25.4996C65.9734 25.8964 65.8899 26.1191 65.8899 26.1679Z" fill="#5CA74E"/>
<path d="M69.2501 28.1095C69.1387 28.207 69.0047 28.2557 68.8499 28.2557C68.7402 28.2557 68.6358 28.2305 68.5366 28.1791C68.4366 28.1261 68.3539 28.053 68.2895 27.9599C68.2312 27.8885 68.1886 27.8085 68.1607 27.7197C68.1346 27.6318 68.1224 27.5239 68.1224 27.396C68.1224 27.3525 68.1268 27.2629 68.1364 27.128C68.1477 26.9662 68.2007 26.7965 68.2965 26.6199C68.3913 26.4441 68.5096 26.2857 68.6515 26.1465C68.7924 26.0056 68.9317 25.909 69.0691 25.8576C69.1405 25.8141 69.2057 25.7915 69.264 25.7915C69.2936 25.7915 69.3241 25.7941 69.3545 25.7985C69.3867 25.8011 69.4207 25.8046 69.4555 25.8089C69.5529 25.8228 69.6269 25.8428 69.6782 25.8681C69.7287 25.8916 69.7722 25.9272 69.807 25.976C69.9158 26.0873 69.9706 26.2153 69.9706 26.3588C69.9541 26.4659 69.8853 26.5877 69.7652 26.7243C69.6469 26.8618 69.5042 26.9714 69.3371 27.0549C69.2553 27.0828 69.164 27.0967 69.0622 27.0967C68.9247 27.0967 68.8151 27.068 68.7315 27.0097C68.6915 26.9958 68.6619 26.9888 68.641 26.9888C68.5993 26.9888 68.5679 27.0158 68.5471 27.0689C68.5279 27.1228 68.5105 27.2203 68.4949 27.3612C68.4896 27.3917 68.4879 27.4361 68.4879 27.4935C68.4879 27.7188 68.5619 27.8433 68.7106 27.8659C68.8125 27.8868 68.8855 27.8972 68.9299 27.8972C68.983 27.8972 69.043 27.8798 69.1109 27.845L69.2362 27.7719C69.2614 27.758 69.2849 27.7406 69.3058 27.7197C69.3284 27.6971 69.3493 27.6771 69.3685 27.6605C69.3772 27.6518 69.3902 27.6379 69.4067 27.6188C69.425 27.5979 69.4416 27.584 69.4555 27.577C69.4711 27.5701 69.4868 27.5666 69.5007 27.5666C69.519 27.5666 69.539 27.577 69.5599 27.5979C69.5825 27.617 69.6017 27.631 69.6156 27.6397C69.6547 27.6397 69.6626 27.6675 69.6399 27.7232C69.6191 27.7789 69.5712 27.8441 69.4972 27.9181C69.425 27.9903 69.3424 28.0538 69.2501 28.1095ZM69.2432 26.7034C69.3171 26.6738 69.3928 26.619 69.4694 26.5398C69.5477 26.4615 69.5877 26.3954 69.5877 26.3414C69.5877 26.2883 69.5677 26.244 69.5286 26.2092C69.4885 26.1726 69.4329 26.1535 69.3615 26.1535C69.3076 26.1535 69.2684 26.1587 69.2432 26.1674C69.1805 26.1865 69.1074 26.2335 69.0239 26.3101C68.9404 26.3867 68.8673 26.4659 68.8046 26.5468C68.742 26.626 68.7176 26.6721 68.7315 26.686C68.7542 26.726 68.8403 26.7452 68.9891 26.7452C69.0909 26.7452 69.1753 26.7312 69.2432 26.7034Z" fill="#5CA74E"/>
<path d="M70.5287 28.2977C70.4591 28.2838 70.3869 28.2368 70.313 28.155C70.2407 28.0715 70.1929 27.9949 70.1703 27.9253C70.1703 27.9166 70.165 27.907 70.1563 27.8975C70.1494 27.8862 70.1433 27.8783 70.1389 27.8731C70.1198 27.8592 70.1111 27.7861 70.1111 27.6538C70.1111 27.5477 70.1163 27.4372 70.1285 27.3232C70.1398 27.2075 70.1537 27.1144 70.1703 27.0447L70.2886 26.6932L70.3826 26.4252L70.5636 26.0423L70.2956 25.9693C70.2651 25.9649 70.2399 25.9501 70.219 25.924C70.1998 25.8962 70.1911 25.8718 70.1911 25.8509C70.1911 25.8144 70.2094 25.7709 70.2468 25.7221C70.2834 25.6717 70.3138 25.6456 70.3373 25.6456C70.3486 25.6508 70.3834 25.6525 70.4417 25.6525C70.574 25.6525 70.6732 25.6456 70.7411 25.6316C70.7846 25.6134 70.8159 25.5777 70.835 25.5238C70.8507 25.4889 70.8707 25.4454 70.8942 25.3915C70.9194 25.3384 70.9438 25.2897 70.9673 25.2453C70.9786 25.2201 70.9986 25.1792 71.0265 25.1235C71.056 25.0678 71.0935 25.0052 71.1378 24.9355C71.1465 24.9216 71.1666 24.8894 71.197 24.8381C71.2292 24.7876 71.2675 24.7441 71.3119 24.7093C71.3414 24.6797 71.3789 24.6641 71.4232 24.6641C71.4667 24.6641 71.525 24.6919 71.5973 24.7476C71.606 24.7615 71.6182 24.7807 71.6321 24.8033C71.6477 24.8242 71.6564 24.8442 71.6564 24.8625C71.6564 24.879 71.639 24.9164 71.6042 24.9738C71.5764 25.0278 71.5494 25.0748 71.5242 25.1165C71.5007 25.1583 71.4807 25.1957 71.465 25.2279C71.4111 25.3167 71.3728 25.3828 71.3502 25.4263C71.3058 25.4846 71.284 25.529 71.284 25.5586C71.284 25.589 71.3127 25.6038 71.371 25.6038C71.4337 25.6038 71.5364 25.5916 71.6808 25.5655C71.7434 25.5568 71.7861 25.5516 71.8096 25.5516C71.9627 25.5516 72.0463 25.616 72.0602 25.743C72.0645 25.7709 72.0671 25.8022 72.0671 25.837C72.0671 25.8996 72.0463 25.9379 72.0045 25.9519C71.9627 25.964 71.8687 25.9693 71.7226 25.9693C71.5807 25.9928 71.4346 26.0041 71.284 26.0041C71.2579 26.0041 71.2283 26.0058 71.1935 26.0075C71.1605 26.0075 71.1274 26.0128 71.0926 26.0215C71.0578 26.031 71.0317 26.045 71.016 26.0632C70.9995 26.0798 70.983 26.1076 70.9673 26.1468C70.9534 26.1607 70.922 26.212 70.8733 26.2999C70.8107 26.4304 70.7706 26.5079 70.755 26.5331C70.634 26.8864 70.5461 27.2484 70.4905 27.619C70.4809 27.6912 70.4765 27.7356 70.4765 27.7513C70.4765 27.8192 70.4983 27.8661 70.5427 27.894C70.5862 27.9201 70.6619 27.9323 70.7689 27.9323C70.9168 27.9323 71.0473 27.9175 71.1587 27.887C71.291 27.8296 71.3902 27.7809 71.458 27.7408C71.4972 27.7182 71.5329 27.6973 71.5659 27.6782C71.5981 27.6573 71.6216 27.6425 71.6356 27.6329C71.6495 27.6077 71.6643 27.5947 71.6808 27.5947C71.7173 27.5947 71.7487 27.6295 71.7748 27.6991C71.7748 27.7713 71.7582 27.8339 71.726 27.887C71.6956 27.9384 71.619 28.0001 71.4963 28.0715C71.2405 28.2342 70.9847 28.3151 70.7271 28.3151C70.6575 28.3151 70.5914 28.3099 70.5287 28.2977Z" fill="#5CA74E"/>
<path d="M72.4907 28.2977C72.4211 28.2838 72.3488 28.2368 72.2749 28.155C72.2026 28.0715 72.1548 27.9949 72.1322 27.9253C72.1322 27.9166 72.1269 27.907 72.1182 27.8975C72.1113 27.8862 72.1052 27.8783 72.1008 27.8731C72.0817 27.8592 72.073 27.7861 72.073 27.6538C72.073 27.5477 72.0782 27.4372 72.0904 27.3232C72.1017 27.2075 72.1156 27.1144 72.1322 27.0447L72.2505 26.6932L72.3445 26.4252L72.5255 26.0423L72.2575 25.9693C72.227 25.9649 72.2018 25.9501 72.1809 25.924C72.1618 25.8962 72.1531 25.8718 72.1531 25.8509C72.1531 25.8144 72.1713 25.7709 72.2087 25.7221C72.2453 25.6717 72.2757 25.6456 72.2992 25.6456C72.3105 25.6508 72.3453 25.6525 72.4036 25.6525C72.5359 25.6525 72.6351 25.6456 72.703 25.6316C72.7465 25.6134 72.7778 25.5777 72.7969 25.5238C72.8126 25.4889 72.8326 25.4454 72.8561 25.3915C72.8813 25.3384 72.9057 25.2897 72.9292 25.2453C72.9405 25.2201 72.9605 25.1792 72.9884 25.1235C73.018 25.0678 73.0554 25.0052 73.0998 24.9355C73.1085 24.9216 73.1285 24.8894 73.1589 24.8381C73.1911 24.7876 73.2294 24.7441 73.2738 24.7093C73.3034 24.6797 73.3408 24.6641 73.3852 24.6641C73.4287 24.6641 73.487 24.6919 73.5592 24.7476C73.5679 24.7615 73.5801 24.7807 73.594 24.8033C73.6096 24.8242 73.6184 24.8442 73.6184 24.8625C73.6184 24.879 73.6009 24.9164 73.5661 24.9738C73.5383 25.0278 73.5113 25.0748 73.4861 25.1165C73.4626 25.1583 73.4426 25.1957 73.4269 25.2279C73.373 25.3167 73.3347 25.3828 73.3121 25.4263C73.2677 25.4846 73.2459 25.529 73.2459 25.5586C73.2459 25.589 73.2746 25.6038 73.3329 25.6038C73.3956 25.6038 73.4983 25.5916 73.6427 25.5655C73.7054 25.5568 73.748 25.5516 73.7715 25.5516C73.9246 25.5516 74.0082 25.616 74.0221 25.743C74.0264 25.7709 74.0291 25.8022 74.0291 25.837C74.0291 25.8996 74.0082 25.9379 73.9664 25.9519C73.9246 25.964 73.8307 25.9693 73.6845 25.9693C73.5426 25.9928 73.3965 26.0041 73.2459 26.0041C73.2198 26.0041 73.1902 26.0058 73.1554 26.0075C73.1224 26.0075 73.0893 26.0128 73.0545 26.0215C73.0197 26.031 72.9936 26.045 72.9779 26.0632C72.9614 26.0798 72.9449 26.1076 72.9292 26.1468C72.9153 26.1607 72.884 26.212 72.8352 26.2999C72.7726 26.4304 72.7326 26.5079 72.7169 26.5331C72.5959 26.8864 72.5081 27.2484 72.4524 27.619C72.4428 27.6912 72.4385 27.7356 72.4385 27.7513C72.4385 27.8192 72.4602 27.8661 72.5046 27.894C72.5481 27.9201 72.6238 27.9323 72.7308 27.9323C72.8787 27.9323 73.0093 27.9175 73.1206 27.887C73.2529 27.8296 73.3521 27.7809 73.42 27.7408C73.4591 27.7182 73.4948 27.6973 73.5279 27.6782C73.5601 27.6573 73.5835 27.6425 73.5975 27.6329C73.6114 27.6077 73.6262 27.5947 73.6427 27.5947C73.6793 27.5947 73.7106 27.6295 73.7367 27.6991C73.7367 27.7713 73.7202 27.8339 73.688 27.887C73.6575 27.9384 73.5809 28.0001 73.4582 28.0715C73.2024 28.2342 72.9466 28.3151 72.6891 28.3151C72.6194 28.3151 72.5533 28.3099 72.4907 28.2977Z" fill="#5CA74E"/>
<path d="M75.0966 28.1095C74.9852 28.207 74.8512 28.2557 74.6963 28.2557C74.5867 28.2557 74.4822 28.2305 74.3831 28.1791C74.283 28.1261 74.2003 28.053 74.1359 27.9599C74.0776 27.8885 74.035 27.8085 74.0072 27.7197C73.9811 27.6318 73.9689 27.5239 73.9689 27.396C73.9689 27.3525 73.9732 27.2629 73.9828 27.128C73.9941 26.9662 74.0472 26.7965 74.1429 26.6199C74.2377 26.4441 74.3561 26.2857 74.4979 26.1465C74.6389 26.0056 74.7781 25.909 74.9156 25.8576C74.9869 25.8141 75.0522 25.7915 75.1105 25.7915C75.1401 25.7915 75.1705 25.7941 75.201 25.7985C75.2332 25.8011 75.2671 25.8046 75.3019 25.8089C75.3994 25.8228 75.4733 25.8428 75.5247 25.8681C75.5751 25.8916 75.6186 25.9272 75.6534 25.976C75.7622 26.0873 75.817 26.2153 75.817 26.3588C75.8005 26.4659 75.7318 26.5877 75.6117 26.7243C75.4933 26.8618 75.3506 26.9714 75.1836 27.0549C75.1018 27.0828 75.0104 27.0967 74.9086 27.0967C74.7711 27.0967 74.6615 27.068 74.578 27.0097C74.5379 26.9958 74.5084 26.9888 74.4875 26.9888C74.4457 26.9888 74.4144 27.0158 74.3935 27.0689C74.3744 27.1228 74.357 27.2203 74.3413 27.3612C74.3361 27.3917 74.3343 27.4361 74.3343 27.4935C74.3343 27.7188 74.4083 27.8433 74.5571 27.8659C74.6589 27.8868 74.732 27.8972 74.7764 27.8972C74.8294 27.8972 74.8895 27.8798 74.9573 27.845L75.0826 27.7719C75.1079 27.758 75.1314 27.7406 75.1522 27.7197C75.1749 27.6971 75.1958 27.6771 75.2149 27.6605C75.2236 27.6518 75.2367 27.6379 75.2532 27.6188C75.2715 27.5979 75.288 27.584 75.3019 27.577C75.3176 27.5701 75.3332 27.5666 75.3472 27.5666C75.3654 27.5666 75.3854 27.577 75.4063 27.5979C75.429 27.617 75.4481 27.631 75.462 27.6397C75.5012 27.6397 75.509 27.6675 75.4864 27.7232C75.4655 27.7789 75.4176 27.8441 75.3437 27.9181C75.2715 27.9903 75.1888 28.0538 75.0966 28.1095ZM75.0896 26.7034C75.1636 26.6738 75.2393 26.619 75.3158 26.5398C75.3941 26.4615 75.4342 26.3954 75.4342 26.3414C75.4342 26.2883 75.4142 26.244 75.375 26.2092C75.335 26.1726 75.2793 26.1535 75.2079 26.1535C75.154 26.1535 75.1148 26.1587 75.0896 26.1674C75.027 26.1865 74.9539 26.2335 74.8703 26.3101C74.7868 26.3867 74.7137 26.4659 74.6511 26.5468C74.5884 26.626 74.564 26.6721 74.578 26.686C74.6006 26.726 74.6867 26.7452 74.8355 26.7452C74.9373 26.7452 75.0217 26.7312 75.0896 26.7034Z" fill="#5CA74E"/>
<path d="M75.9784 28.1097C75.941 28.0844 75.9157 28.061 75.9018 28.0401C75.8896 28.0174 75.8844 27.9835 75.8844 27.9391C75.8844 27.9 75.8861 27.866 75.8914 27.8382C75.9053 27.6877 75.9383 27.5136 75.9923 27.3161L76.0236 27.1839C76.0375 27.0725 76.115 26.841 76.2568 26.4878C76.3978 26.1327 76.5126 25.8917 76.6014 25.7638C76.6362 25.7412 76.6727 25.729 76.7128 25.729C76.7702 25.729 76.8189 25.7499 76.8589 25.7917C76.8842 25.8082 76.8972 25.8404 76.8972 25.8891C76.8972 25.9335 76.8807 25.9987 76.8485 26.084C76.8154 26.1702 76.7598 26.2981 76.6814 26.4669C76.6623 26.5017 76.6327 26.5678 76.5909 26.6653C76.5492 26.7627 76.5283 26.821 76.5283 26.8393C76.5283 26.8463 76.53 26.8497 76.5353 26.8497C76.544 26.8497 76.5527 26.848 76.5596 26.8428C76.5683 26.8358 76.5779 26.8306 76.5875 26.8254C76.6362 26.7418 76.7545 26.627 76.9425 26.4808C77.1304 26.3346 77.2592 26.2441 77.3288 26.2093C77.361 26.191 77.4019 26.1736 77.4506 26.1571C77.4994 26.1388 77.5316 26.1249 77.5481 26.1153C77.6194 26.0805 77.7047 26.0631 77.8022 26.0631C77.8622 26.0631 77.9153 26.0736 77.9623 26.0945C78.0084 26.1136 78.0406 26.1423 78.0597 26.1815C78.0641 26.2119 78.0754 26.2363 78.0945 26.2546C78.1154 26.2737 78.1302 26.2841 78.1398 26.2859C78.1511 26.2859 78.1589 26.292 78.1641 26.3033C78.1685 26.3155 78.1711 26.3233 78.1711 26.3277C78.1711 26.3581 78.1537 26.3764 78.1189 26.3833C78.0841 26.3903 78.0197 26.3964 77.9275 26.4007C77.8787 26.406 77.8274 26.4173 77.7743 26.4356C77.7204 26.4521 77.6673 26.473 77.6142 26.4982C77.368 26.64 77.1835 26.7514 77.0608 26.8323C76.9399 26.9115 76.8172 27.0194 76.6919 27.156C76.6432 27.21 76.5788 27.3048 76.5005 27.4414C76.47 27.4719 76.4378 27.5528 76.403 27.6851C76.3699 27.8156 76.3543 27.8956 76.3543 27.9252C76.349 27.9391 76.3403 27.9652 76.3264 28.0018C76.3142 28.0392 76.296 28.0749 76.2707 28.1097C76.2168 28.1819 76.1715 28.2176 76.135 28.2176C76.095 28.2176 76.0428 28.1819 75.9784 28.1097Z" fill="#5CA74E"/>
<path d="M79.8874 28.0432C79.7943 28.0432 79.7151 27.9719 79.6507 27.8274C79.5881 27.6813 79.5568 27.5107 79.5568 27.3158L79.5637 27.194C79.5637 27.0365 79.5742 26.9042 79.595 26.7972C79.6177 26.691 79.6316 26.6249 79.6368 26.5988C79.6455 26.5762 79.6542 26.5379 79.6612 26.484C79.6699 26.4283 79.689 26.35 79.7169 26.2473C79.7517 26.0924 79.7865 25.9967 79.8213 25.9619C79.8561 25.9271 79.8979 25.9097 79.9466 25.9097C79.9788 25.9097 80.0075 25.9184 80.0336 25.934C80.0614 25.948 80.0832 25.9688 80.0997 25.9967C80.1276 26.0228 80.1415 26.0863 80.1415 26.1881C80.1415 26.2629 80.1345 26.336 80.1206 26.4074C80.1067 26.477 80.0893 26.5283 80.0684 26.5605C80.0545 26.5866 80.0336 26.7137 80.0058 26.9434C79.9892 27.1104 79.9762 27.2183 79.9675 27.2671C79.9622 27.2862 79.9605 27.3123 79.9605 27.3471C79.9605 27.4498 79.9918 27.5003 80.0545 27.5003C80.1563 27.5003 80.2999 27.3663 80.4861 27.0965C80.6088 26.9208 80.6958 26.7824 80.7471 26.6823C80.7976 26.5831 80.8498 26.4552 80.9037 26.2995C80.9246 26.2351 80.9438 26.1777 80.9629 26.1289C80.9838 26.0802 81.0029 26.0489 81.0221 26.035C81.0429 26.0167 81.0743 26.0071 81.116 26.0071C81.1595 26.0071 81.2118 26.028 81.2727 26.0698C81.3257 26.1211 81.3527 26.1829 81.3527 26.2542C81.3527 26.3291 81.3257 26.4196 81.2727 26.5257C81.2187 26.6327 81.17 26.7798 81.1265 26.9677C81.0821 27.1557 81.0603 27.3019 81.0603 27.4063C81.0603 27.4881 81.0708 27.5386 81.0917 27.5594C81.1126 27.5786 81.1448 27.5873 81.1891 27.5873C81.3118 27.5873 81.4589 27.4994 81.6312 27.3228C81.7095 27.2418 81.8139 27.1017 81.9444 26.9016C82.0767 26.6997 82.1428 26.5814 82.1428 26.5466C82.1428 26.5188 82.1619 26.4805 82.202 26.4317C82.2246 26.4022 82.2455 26.3761 82.2646 26.3552C82.2855 26.3326 82.3151 26.3091 82.3551 26.2856L82.4073 26.2751C82.4421 26.2751 82.4839 26.2995 82.5326 26.3482C82.5509 26.3647 82.5622 26.3926 82.5674 26.4317C82.5718 26.4692 82.5744 26.5118 82.5744 26.5605C82.5509 26.6397 82.5126 26.7415 82.4595 26.8668C82.4056 26.9921 82.3638 27.0739 82.3342 27.1104C82.2507 27.1757 82.1793 27.2566 82.1219 27.3541C82.0149 27.482 81.9313 27.5716 81.8713 27.6221C81.813 27.6734 81.7747 27.7082 81.7565 27.7265C81.6677 27.8153 81.572 27.8831 81.4676 27.9319C81.3649 27.9806 81.2674 28.0049 81.1752 28.0049C81.0821 28.0049 81.0064 27.9832 80.949 27.9388C80.8115 27.8675 80.7436 27.7474 80.7436 27.5803C80.7436 27.5507 80.7384 27.5229 80.7297 27.4968C80.7201 27.4689 80.7132 27.4507 80.7088 27.4411C80.6436 27.4411 80.5913 27.4759 80.5522 27.5455C80.4895 27.6569 80.3825 27.7683 80.232 27.8796C80.0806 27.9893 79.9657 28.0432 79.8874 28.0432Z" fill="#5CA74E"/>
<path d="M83.288 25.4386C83.2575 25.4064 83.2306 25.3533 83.2079 25.2785C83.187 25.2045 83.187 25.1671 83.2079 25.1671C83.2445 25.1628 83.2862 25.1245 83.3332 25.0523C83.3793 24.9783 83.4002 24.9165 83.3959 24.8678C83.3959 24.8495 83.4011 24.833 83.4133 24.8191C83.4272 24.8034 83.4429 24.793 83.462 24.7877C83.4968 24.7651 83.5264 24.7529 83.5525 24.7529C83.6291 24.7529 83.6969 24.8069 83.7578 24.913C83.7857 24.9713 83.7996 25.0227 83.7996 25.0662C83.7996 25.1062 83.7874 25.1462 83.7648 25.188C83.7439 25.2298 83.7039 25.2846 83.6465 25.3516C83.5716 25.4543 83.5012 25.5047 83.4342 25.5047C83.3898 25.5047 83.3411 25.483 83.288 25.4386ZM82.6441 28.129C82.5832 28.0664 82.5536 27.9785 82.5536 27.8645C82.5536 27.8019 82.564 27.7488 82.5849 27.7044C82.5849 27.6835 82.5893 27.6583 82.5988 27.6278C82.6075 27.5956 82.6128 27.5748 82.6128 27.5652C82.6075 27.54 82.6249 27.4669 82.665 27.3459C82.7433 27.1702 82.8503 26.8586 82.9852 26.4131C82.9852 26.3905 82.993 26.3714 83.0095 26.3575C83.0278 26.3418 83.0548 26.3313 83.0896 26.3261C83.1244 26.3174 83.1488 26.3122 83.1627 26.3122C83.1879 26.3122 83.2114 26.3226 83.2323 26.3435C83.2532 26.3627 83.281 26.3983 83.3158 26.4514C83.3411 26.4793 83.3541 26.5193 83.3541 26.5698C83.3541 26.6559 83.3263 26.7577 83.2706 26.876C83.2123 27.004 83.174 27.1145 83.1557 27.2067C83.1018 27.3276 83.06 27.4382 83.0304 27.5373C83.0208 27.5652 83.0069 27.62 82.9887 27.7009C82.9721 27.7801 82.9486 27.8428 82.919 27.8889C82.8912 28.0142 82.8651 28.1012 82.8425 28.1499C82.8216 28.1986 82.7981 28.223 82.7729 28.223C82.7398 28.223 82.6972 28.1917 82.6441 28.129Z" fill="#5CA74E"/>
<path d="M84.1039 28.2977C84.0343 28.2838 83.9621 28.2368 83.8881 28.155C83.8159 28.0715 83.7681 27.9949 83.7454 27.9253C83.7454 27.9166 83.7402 27.907 83.7315 27.8975C83.7246 27.8862 83.7185 27.8783 83.7141 27.8731C83.695 27.8592 83.6863 27.7861 83.6863 27.6538C83.6863 27.5477 83.6915 27.4372 83.7037 27.3232C83.715 27.2075 83.7289 27.1144 83.7454 27.0447L83.8638 26.6932L83.9578 26.4252L84.1387 26.0423L83.8707 25.9693C83.8403 25.9649 83.8151 25.9501 83.7942 25.924C83.775 25.8962 83.7663 25.8718 83.7663 25.8509C83.7663 25.8144 83.7846 25.7709 83.822 25.7221C83.8586 25.6717 83.889 25.6456 83.9125 25.6456C83.9238 25.6508 83.9586 25.6525 84.0169 25.6525C84.1492 25.6525 84.2484 25.6456 84.3163 25.6316C84.3598 25.6134 84.3911 25.5777 84.4102 25.5238C84.4259 25.4889 84.4459 25.4454 84.4694 25.3915C84.4946 25.3384 84.519 25.2897 84.5425 25.2453C84.5538 25.2201 84.5738 25.1792 84.6017 25.1235C84.6312 25.0678 84.6687 25.0052 84.713 24.9355C84.7217 24.9216 84.7417 24.8894 84.7722 24.8381C84.8044 24.7876 84.8427 24.7441 84.8871 24.7093C84.9166 24.6797 84.9541 24.6641 84.9984 24.6641C85.0419 24.6641 85.1002 24.6919 85.1725 24.7476C85.1812 24.7615 85.1933 24.7807 85.2073 24.8033C85.2229 24.8242 85.2316 24.8442 85.2316 24.8625C85.2316 24.879 85.2142 24.9164 85.1794 24.9738C85.1516 25.0278 85.1246 25.0748 85.0994 25.1165C85.0759 25.1583 85.0559 25.1957 85.0402 25.2279C84.9863 25.3167 84.948 25.3828 84.9253 25.4263C84.881 25.4846 84.8592 25.529 84.8592 25.5586C84.8592 25.589 84.8879 25.6038 84.9462 25.6038C85.0089 25.6038 85.1116 25.5916 85.256 25.5655C85.3186 25.5568 85.3613 25.5516 85.3848 25.5516C85.5379 25.5516 85.6214 25.616 85.6354 25.743C85.6397 25.7709 85.6423 25.8022 85.6423 25.837C85.6423 25.8996 85.6214 25.9379 85.5797 25.9519C85.5379 25.964 85.4439 25.9693 85.2978 25.9693C85.1559 25.9928 85.0097 26.0041 84.8592 26.0041C84.8331 26.0041 84.8035 26.0058 84.7687 26.0075C84.7357 26.0075 84.7026 26.0128 84.6678 26.0215C84.633 26.031 84.6069 26.045 84.5912 26.0632C84.5747 26.0798 84.5582 26.1076 84.5425 26.1468C84.5286 26.1607 84.4972 26.212 84.4485 26.2999C84.3859 26.4304 84.3458 26.5079 84.3302 26.5331C84.2092 26.8864 84.1213 27.2484 84.0657 27.619C84.0561 27.6912 84.0517 27.7356 84.0517 27.7513C84.0517 27.8192 84.0735 27.8661 84.1179 27.894C84.1614 27.9201 84.2371 27.9323 84.3441 27.9323C84.492 27.9323 84.6225 27.9175 84.7339 27.887C84.8662 27.8296 84.9654 27.7809 85.0332 27.7408C85.0724 27.7182 85.1081 27.6973 85.1411 27.6782C85.1733 27.6573 85.1968 27.6425 85.2107 27.6329C85.2247 27.6077 85.2395 27.5947 85.256 27.5947C85.2925 27.5947 85.3239 27.6295 85.35 27.6991C85.35 27.7713 85.3334 27.8339 85.3012 27.887C85.2708 27.9384 85.1942 28.0001 85.0715 28.0715C84.8157 28.2342 84.5599 28.3151 84.3023 28.3151C84.2327 28.3151 84.1666 28.3099 84.1039 28.2977Z" fill="#5CA74E"/>
<path d="M85.7424 27.9841C85.6745 27.9841 85.624 27.9693 85.5892 27.9388C85.5544 27.9067 85.5309 27.8823 85.5196 27.8658C85.5074 27.8475 85.5022 27.8257 85.5022 27.7996C85.5022 27.7814 85.517 27.6987 85.5474 27.5525L85.6101 27.3332C85.6536 27.1523 85.6936 27.0026 85.7284 26.8843C85.7441 26.7729 85.778 26.6563 85.8294 26.5327C85.8798 26.41 85.9103 26.3343 85.9199 26.3065C85.9547 26.1794 86.0225 25.9811 86.1252 25.7113L86.3236 25.1718C86.4785 24.7524 86.5716 24.4957 86.602 24.4026L86.7099 24.1138C86.7099 24.0424 86.7447 24.0059 86.8144 24.0059C86.877 24.0059 86.9292 24.0407 86.971 24.1103C87.0127 24.1781 87.0336 24.2556 87.0336 24.3435C87.0336 24.4113 87.0206 24.4757 86.9953 24.5384C86.9327 24.6706 86.864 24.8377 86.79 25.0396C86.7178 25.2397 86.6717 25.3702 86.6508 25.4329C86.4994 25.8575 86.3906 26.1412 86.3236 26.2821C86.3236 26.2987 86.3166 26.3291 86.3027 26.3726C86.2905 26.417 86.2757 26.4579 86.2575 26.4944L86.1844 26.6371C86.1844 26.6511 86.16 26.7442 86.1113 26.9156C86.0504 27.1061 86.0138 27.2454 85.9999 27.3332C86.0208 27.2941 86.066 27.234 86.1357 27.1523C86.207 27.0713 86.2749 27.0043 86.3375 26.9504C86.5812 26.7415 86.7317 26.618 86.79 26.578C86.8405 26.5484 86.884 26.5205 86.9188 26.4944C86.9553 26.4666 86.9814 26.4483 86.9953 26.4387C86.9953 26.4179 87.0197 26.4074 87.0684 26.4074C87.0841 26.4074 87.0937 26.4057 87.0963 26.4005C87.098 26.3961 87.0998 26.3848 87.0998 26.3657C87.0998 26.3361 87.1502 26.3091 87.2529 26.2856C87.3547 26.2604 87.4452 26.2473 87.5244 26.2473C87.5775 26.2473 87.6192 26.2595 87.6497 26.2821C87.6819 26.303 87.7228 26.3509 87.7715 26.4248C87.8455 26.5318 87.8829 26.6476 87.8829 26.7729C87.8829 26.8425 87.8698 26.9147 87.8446 26.9887C87.8446 27.0261 87.8385 27.0809 87.8272 27.1523C87.815 27.2245 87.8098 27.2871 87.8098 27.3402L87.7715 27.5525H87.8759C87.9055 27.5525 87.9351 27.5577 87.9629 27.5664C87.9925 27.576 88.0125 27.583 88.0221 27.5873C88.0613 27.636 88.0961 27.6604 88.1265 27.6604C88.1683 27.6604 88.1892 27.6761 88.1892 27.7057C88.1892 27.7248 88.1796 27.7474 88.1613 27.7753C88.1422 27.8014 88.1178 27.8223 88.0882 27.8379C87.9716 27.9101 87.8742 27.9458 87.7959 27.9458C87.721 27.9458 87.6445 27.9101 87.5661 27.8379C87.4687 27.7405 87.42 27.6239 87.42 27.4864C87.42 27.4168 87.4321 27.3332 87.4583 27.2358L87.4791 27.0235C87.4878 26.9173 87.4931 26.8512 87.4931 26.8251C87.4931 26.7233 87.4687 26.6719 87.42 26.6719C87.3573 26.6719 87.2372 26.7268 87.0615 26.8355C86.8874 26.9426 86.7073 27.0774 86.522 27.2393C86.3358 27.3994 86.1887 27.5621 86.08 27.7265C86.0121 27.8101 85.9555 27.8727 85.9094 27.9145C85.8624 27.9563 85.8198 27.9797 85.7806 27.9841H85.7424Z" fill="#5CA74E"/>
<path d="M90.588 28.972C90.4714 28.9903 90.3966 28.9999 90.3618 28.9999C90.273 28.9999 90.1669 28.9807 90.0416 28.9442C89.9859 28.9277 89.9441 28.9076 89.9163 28.885C89.8902 28.8641 89.8606 28.8311 89.8258 28.7876C89.7927 28.7458 89.7683 28.7145 89.7527 28.6936C89.6709 28.5822 89.6309 28.4848 89.6309 28.4012C89.6309 28.3368 89.6622 28.3125 89.7248 28.3281C89.7683 28.3508 89.8171 28.3951 89.871 28.4604C89.9241 28.5135 89.9807 28.5518 90.0416 28.5753C90.1042 28.6005 90.179 28.6135 90.2678 28.6135C90.3 28.6135 90.36 28.6083 90.4488 28.5996C90.5532 28.5831 90.6759 28.5509 90.8177 28.5022C90.9587 28.4534 91.0631 28.4021 91.131 28.349C91.3415 28.2028 91.5147 28.0862 91.6496 27.9975C91.7836 27.9096 91.8697 27.8539 91.9071 27.8304C91.9158 27.8095 91.9628 27.7834 92.0463 27.7504L92.2238 27.5798C92.3396 27.4571 92.4153 27.3814 92.4501 27.3536C92.4544 27.324 92.4614 27.2927 92.471 27.2596C92.4823 27.2248 92.4884 27.1996 92.4884 27.183C92.5414 27.1256 92.6215 26.9873 92.7285 26.7689C92.8347 26.5487 92.9078 26.3599 92.9478 26.2015C92.987 25.9927 93.007 25.81 93.007 25.6516C93.007 25.3801 92.9591 25.153 92.8643 24.9694C92.7686 24.7867 92.6311 24.6179 92.4501 24.4648C92.357 24.3882 92.203 24.3047 91.9872 24.2142C91.7731 24.1237 91.6496 24.0854 91.6148 24.0993C91.5913 24.1045 91.5312 24.2316 91.4338 24.4822C91.3381 24.731 91.2058 25.0895 91.037 25.5576L90.8247 26.1459C90.8081 26.2181 90.7881 26.2851 90.7655 26.3477C90.7446 26.4086 90.7272 26.4626 90.7133 26.5113C90.655 26.6766 90.6263 26.7689 90.6263 26.7897C90.5776 26.8663 90.5375 26.9655 90.508 27.0856C90.4801 27.2065 90.4488 27.4128 90.414 27.7051C90.374 27.8513 90.3565 27.9174 90.3618 27.9035C90.3426 27.9801 90.327 28.0427 90.313 28.0915C90.3009 28.1402 90.2887 28.1628 90.2748 28.1576L90.2469 28.182C90.2469 28.2098 90.2269 28.2237 90.1877 28.2237C90.1529 28.2237 90.1129 28.215 90.0694 28.1959C90.025 28.175 89.9902 28.1506 89.965 28.1228C89.9458 28.0601 89.9371 28.0166 89.9371 27.9905C89.9371 27.9331 89.9545 27.8443 89.9894 27.726C90.0242 27.5755 90.0816 27.364 90.1634 27.0926C90.2469 26.8211 90.3174 26.5983 90.3757 26.4243C90.4053 26.3503 90.4497 26.2102 90.508 26.0031C90.5567 25.8387 90.6098 25.6708 90.6681 25.4985C90.7281 25.3244 90.7725 25.2157 90.8003 25.1713C90.8073 25.1417 90.836 25.053 90.8873 24.9068C90.9378 24.7606 90.9996 24.5996 91.0718 24.423L91.117 24.2037L91.044 24.1724C91.0039 24.1846 90.9691 24.1898 90.9395 24.1898C90.916 24.1898 90.8917 24.1846 90.8664 24.1724C90.8221 24.1846 90.7603 24.1654 90.682 24.1167C90.6054 24.0662 90.5619 24.0184 90.5532 23.974C90.5436 23.9601 90.5375 23.9409 90.5358 23.9148C90.5332 23.887 90.5323 23.8687 90.5323 23.8591C90.541 23.8156 90.6298 23.7747 90.7968 23.7373C90.9656 23.7008 91.1501 23.6816 91.3502 23.6816C91.4338 23.6816 91.4973 23.6843 91.5417 23.6886C91.62 23.6938 91.6957 23.7077 91.7679 23.7304C91.8419 23.7513 91.9324 23.7843 92.0394 23.8278L92.1995 23.887C92.3387 23.9409 92.4892 24.0332 92.652 24.1654C92.8138 24.2977 92.9582 24.4534 93.0835 24.6318C93.2088 24.8111 93.2932 24.9929 93.3376 25.1783C93.3515 25.2366 93.3637 25.3166 93.3759 25.4184C93.3898 25.5211 93.3968 25.6116 93.3968 25.6899C93.3968 25.783 93.3881 25.8413 93.3724 25.8639C93.3585 25.8805 93.3515 25.9022 93.3515 25.9301C93.3515 25.9562 93.3602 25.971 93.3794 25.9753C93.3698 26.0014 93.3533 26.0501 93.3307 26.1215C93.3098 26.1911 93.2854 26.2668 93.2576 26.3477C93.2315 26.6262 93.1088 26.9533 92.8886 27.3292C92.8651 27.3292 92.8469 27.3327 92.8329 27.3397C92.8208 27.3449 92.8234 27.3492 92.8399 27.3536C92.8399 27.3771 92.8155 27.4189 92.7668 27.4789C92.7546 27.4885 92.7268 27.5207 92.6833 27.5763C92.6415 27.632 92.6119 27.6668 92.5963 27.6808C92.591 27.7112 92.5771 27.7364 92.5545 27.7573C92.5336 27.7765 92.5136 27.7852 92.4953 27.7852C92.4953 27.7852 92.4918 27.7869 92.4849 27.7887C92.4797 27.7913 92.4779 27.7991 92.4779 27.813C92.3961 27.927 92.25 28.0688 92.0394 28.2376C91.8305 28.4047 91.6443 28.523 91.4825 28.5927C91.4381 28.6249 91.3859 28.6536 91.3259 28.6797C91.265 28.7075 91.2249 28.7249 91.2041 28.7319C91.1693 28.7641 91.0796 28.8067 90.9361 28.8607C90.7916 28.9163 90.6759 28.9529 90.588 28.972Z" fill="#5CA74E"/>
<path d="M93.4042 28.102C93.3903 28.0768 93.3677 28.0498 93.3381 28.022C93.3103 27.9924 93.2963 27.9724 93.2963 27.9628C93.2963 27.9141 93.2859 27.8775 93.265 27.8514C93.2554 27.8427 93.2511 27.8227 93.2511 27.7923C93.2511 27.7209 93.2842 27.6 93.352 27.4303C93.4216 27.2615 93.5121 27.077 93.6235 26.8769C93.6487 26.8516 93.6827 26.8055 93.7244 26.7377C93.7662 26.6707 93.7941 26.6332 93.808 26.6263C93.808 26.608 93.8132 26.5915 93.8254 26.5776C93.8393 26.5619 93.855 26.5532 93.8741 26.5532V26.5114C93.8741 26.4723 93.9472 26.3774 94.0934 26.226C94.2396 26.0729 94.3588 25.9676 94.4519 25.9093C94.5606 25.8327 94.6729 25.7944 94.7895 25.7944C94.8678 25.7944 94.9365 25.8179 94.9948 25.864C95.0175 25.8901 95.1201 25.9841 95.3011 26.146L95.5448 26.3652L95.4264 26.6994C95.3864 26.8177 95.3673 26.9256 95.3673 27.0231C95.3673 27.1901 95.416 27.352 95.5134 27.5069C95.5343 27.5556 95.577 27.6026 95.6422 27.6461C95.7092 27.6904 95.7762 27.7174 95.8441 27.7261C95.9415 27.7427 95.9903 27.7914 95.9903 27.8723C95.9903 27.9611 95.9494 28.0133 95.8685 28.0289C95.8519 28.0341 95.8267 28.0359 95.7919 28.0359C95.5291 28.0359 95.3029 27.8532 95.1132 27.486C95.0966 27.4607 95.0732 27.4129 95.0436 27.3433C95.0157 27.2719 94.9992 27.2214 94.9948 27.1936C94.9687 27.231 94.9357 27.2737 94.8939 27.3224C94.8539 27.3711 94.8173 27.4129 94.7825 27.4477C94.2996 27.928 93.9194 28.1681 93.6409 28.1681C93.5522 28.1681 93.4739 28.1464 93.4042 28.102ZM93.6409 27.7331C93.6409 27.754 93.6635 27.7609 93.7105 27.754C93.7566 27.7453 93.8132 27.7226 93.8811 27.6878C93.9507 27.6513 94.0212 27.6034 94.0934 27.5451C94.4736 27.218 94.7477 26.9343 94.9148 26.6924L95.061 26.4523C95.0166 26.36 94.9705 26.2921 94.9217 26.2504C94.873 26.2086 94.8286 26.1877 94.7895 26.1877C94.6964 26.1877 94.5502 26.3043 94.3509 26.5358C94.1534 26.7681 93.9724 27.0405 93.808 27.3537C93.768 27.4303 93.7323 27.5069 93.7001 27.5834C93.6696 27.66 93.6496 27.7105 93.6409 27.7331Z" fill="#5CA74E"/>
<path d="M96.5458 28.2977C96.4762 28.2838 96.404 28.2368 96.33 28.155C96.2578 28.0715 96.21 27.9949 96.1873 27.9253C96.1873 27.9166 96.1821 27.907 96.1734 27.8975C96.1665 27.8862 96.1604 27.8783 96.156 27.8731C96.1369 27.8592 96.1282 27.7861 96.1282 27.6538C96.1282 27.5477 96.1334 27.4372 96.1456 27.3232C96.1569 27.2075 96.1708 27.1144 96.1873 27.0447L96.3057 26.6932L96.3997 26.4252L96.5806 26.0423L96.3126 25.9693C96.2822 25.9649 96.257 25.9501 96.2361 25.924C96.2169 25.8962 96.2082 25.8718 96.2082 25.8509C96.2082 25.8144 96.2265 25.7709 96.2639 25.7221C96.3005 25.6717 96.3309 25.6456 96.3544 25.6456C96.3657 25.6508 96.4005 25.6525 96.4588 25.6525C96.5911 25.6525 96.6903 25.6456 96.7581 25.6316C96.8017 25.6134 96.833 25.5777 96.8521 25.5238C96.8678 25.4889 96.8878 25.4454 96.9113 25.3915C96.9365 25.3384 96.9609 25.2897 96.9844 25.2453C96.9957 25.2201 97.0157 25.1792 97.0436 25.1235C97.0731 25.0678 97.1106 25.0052 97.1549 24.9355C97.1636 24.9216 97.1836 24.8894 97.2141 24.8381C97.2463 24.7876 97.2846 24.7441 97.329 24.7093C97.3585 24.6797 97.396 24.6641 97.4403 24.6641C97.4838 24.6641 97.5421 24.6919 97.6144 24.7476C97.6231 24.7615 97.6352 24.7807 97.6492 24.8033C97.6648 24.8242 97.6735 24.8442 97.6735 24.8625C97.6735 24.879 97.6561 24.9164 97.6213 24.9738C97.5935 25.0278 97.5665 25.0748 97.5413 25.1165C97.5178 25.1583 97.4978 25.1957 97.4821 25.2279C97.4281 25.3167 97.3899 25.3828 97.3672 25.4263C97.3229 25.4846 97.3011 25.529 97.3011 25.5586C97.3011 25.589 97.3298 25.6038 97.3881 25.6038C97.4508 25.6038 97.5534 25.5916 97.6979 25.5655C97.7605 25.5568 97.8032 25.5516 97.8267 25.5516C97.9798 25.5516 98.0633 25.616 98.0773 25.743C98.0816 25.7709 98.0842 25.8022 98.0842 25.837C98.0842 25.8996 98.0633 25.9379 98.0216 25.9519C97.9798 25.964 97.8858 25.9693 97.7397 25.9693C97.5978 25.9928 97.4516 26.0041 97.3011 26.0041C97.275 26.0041 97.2454 26.0058 97.2106 26.0075C97.1776 26.0075 97.1445 26.0128 97.1097 26.0215C97.0749 26.031 97.0488 26.045 97.0331 26.0632C97.0166 26.0798 97 26.1076 96.9844 26.1468C96.9705 26.1607 96.9391 26.212 96.8904 26.2999C96.8278 26.4304 96.7877 26.5079 96.7721 26.5331C96.6511 26.8864 96.5632 27.2484 96.5076 27.619C96.498 27.6912 96.4936 27.7356 96.4936 27.7513C96.4936 27.8192 96.5154 27.8661 96.5598 27.894C96.6033 27.9201 96.679 27.9323 96.786 27.9323C96.9339 27.9323 97.0644 27.9175 97.1758 27.887C97.3081 27.8296 97.4073 27.7809 97.4751 27.7408C97.5143 27.7182 97.55 27.6973 97.583 27.6782C97.6152 27.6573 97.6387 27.6425 97.6526 27.6329C97.6666 27.6077 97.6814 27.5947 97.6979 27.5947C97.7344 27.5947 97.7658 27.6295 97.7919 27.6991C97.7919 27.7713 97.7753 27.8339 97.7431 27.887C97.7127 27.9384 97.6361 28.0001 97.5134 28.0715C97.2576 28.2342 97.0018 28.3151 96.7442 28.3151C96.6746 28.3151 96.6085 28.3099 96.5458 28.2977Z" fill="#5CA74E"/>
<path d="M98.0311 28.102C98.0172 28.0768 97.9945 28.0498 97.9649 28.022C97.9371 27.9924 97.9232 27.9724 97.9232 27.9628C97.9232 27.9141 97.9127 27.8775 97.8919 27.8514C97.8823 27.8427 97.8779 27.8227 97.8779 27.7923C97.8779 27.7209 97.911 27.6 97.9789 27.4303C98.0485 27.2615 98.139 27.077 98.2503 26.8769C98.2756 26.8516 98.3095 26.8055 98.3513 26.7377C98.393 26.6707 98.4209 26.6332 98.4348 26.6263C98.4348 26.608 98.44 26.5915 98.4522 26.5776C98.4661 26.5619 98.4818 26.5532 98.5009 26.5532V26.5114C98.5009 26.4723 98.574 26.3774 98.7202 26.226C98.8664 26.0729 98.9856 25.9676 99.0787 25.9093C99.1875 25.8327 99.2997 25.7944 99.4163 25.7944C99.4946 25.7944 99.5634 25.8179 99.6217 25.864C99.6443 25.8901 99.747 25.9841 99.928 26.146L100.172 26.3652L100.053 26.6994C100.013 26.8177 99.9941 26.9256 99.9941 27.0231C99.9941 27.1901 100.043 27.352 100.14 27.5069C100.161 27.5556 100.204 27.6026 100.269 27.6461C100.336 27.6904 100.403 27.7174 100.471 27.7261C100.568 27.7427 100.617 27.7914 100.617 27.8723C100.617 27.9611 100.576 28.0133 100.495 28.0289C100.479 28.0341 100.454 28.0359 100.419 28.0359C100.156 28.0359 99.9297 27.8532 99.74 27.486C99.7235 27.4607 99.7 27.4129 99.6704 27.3433C99.6426 27.2719 99.626 27.2214 99.6217 27.1936C99.5956 27.231 99.5625 27.2737 99.5207 27.3224C99.4807 27.3711 99.4442 27.4129 99.4094 27.4477C98.9264 27.928 98.5462 28.1681 98.2677 28.1681C98.179 28.1681 98.1007 28.1464 98.0311 28.102ZM98.2677 27.7331C98.2677 27.754 98.2904 27.7609 98.3374 27.754C98.3835 27.7453 98.44 27.7226 98.5079 27.6878C98.5775 27.6513 98.648 27.6034 98.7202 27.5451C99.1005 27.218 99.3746 26.9343 99.5416 26.6924L99.6878 26.4523C99.6434 26.36 99.5973 26.2921 99.5486 26.2504C99.4999 26.2086 99.4555 26.1877 99.4163 26.1877C99.3232 26.1877 99.177 26.3043 98.9778 26.5358C98.7803 26.7681 98.5993 27.0405 98.4348 27.3537C98.3948 27.4303 98.3591 27.5069 98.3269 27.5834C98.2965 27.66 98.2764 27.7105 98.2677 27.7331Z" fill="#5CA74E"/>
</svg>