<svg width="120" height="40" viewBox="0 0 120 40" fill="none" xmlns="http://www.w3.org/2000/svg">
<path fill-rule="evenodd" clip-rule="evenodd" d="M34.546 12.769V29.5569L24.04 35.62L22.3257 34.6333C21.884 34.0816 21.3268 33.2466 21.1799 32.4006V25.211L28.1362 20.9954C28.3844 20.8447 28.6199 20.676 28.8426 20.4894C29.0653 20.3029 29.2723 20.1003 29.464 19.8819C29.6557 19.6633 29.8294 19.4314 29.9853 19.1865C30.1416 18.9415 30.2781 18.6859 30.395 18.4198L31.1091 16.7933L20.0686 23.2977L9.03143 16.7933L9.7459 18.4198C9.86273 18.6859 9.99927 18.9415 10.1555 19.1865C10.3114 19.4314 10.4852 19.6633 10.6769 19.8819C10.8685 20.1003 11.0755 20.3029 11.2982 20.4894C11.5209 20.6764 11.7564 20.8447 12.0047 20.9954L18.9609 25.211V32.3064C18.8426 33.1736 18.2721 34.0401 17.8161 34.6127L16.0578 35.6248H20.0529L24.0316 35.6249H20.0011H15.9706L5.45624 29.5569V12.769L20.0011 4.375L34.546 12.769ZM24.0316 35.6249L24.04 35.62L24.0484 35.6248L24.0316 35.6249ZM12.3973 11.6061L11.7756 10.1914L18.4084 14.1051C18.5515 14.1891 18.6815 14.2902 18.7979 14.4085C18.9144 14.5268 19.0137 14.6582 19.0958 14.8024C19.178 14.9466 19.24 15.0988 19.282 15.2595C19.3244 15.4201 19.3452 15.5833 19.3445 15.7494V16.8231L14.3618 13.8466C14.1457 13.7155 13.9409 13.5688 13.747 13.4063C13.5535 13.2442 13.3732 13.0679 13.2067 12.878C13.0402 12.6878 12.8891 12.4863 12.7533 12.2731C12.6175 12.0599 12.4988 11.8376 12.3973 11.6061ZM20.8913 16.822L25.8754 13.8466C26.3102 13.583 26.6954 13.2603 27.0305 12.878C27.3657 12.4954 27.6355 12.0716 27.8396 11.6061L28.4598 10.1914L21.8285 14.1051C21.6854 14.1891 21.5554 14.2902 21.4389 14.4081C21.3225 14.5264 21.2232 14.6575 21.1407 14.8017C21.0585 14.9459 20.9965 15.0981 20.9541 15.2584C20.9118 15.419 20.891 15.5822 20.8913 15.7483V16.822ZM10.4786 13.2031L11.1931 14.8296C11.3099 15.0957 11.4465 15.3513 11.6023 15.5962C11.7586 15.8412 11.9324 16.073 12.1237 16.2917C12.3153 16.51 12.5224 16.7127 12.7451 16.8992C12.9678 17.0858 13.2032 17.2544 13.4519 17.4052L19.18 20.8275V19.5928C19.1807 19.4019 19.157 19.2142 19.1084 19.0295C19.0599 18.8451 18.9883 18.6699 18.8941 18.5038C18.7996 18.338 18.6857 18.1872 18.5517 18.0514C18.4177 17.9152 18.2684 17.7991 18.1041 17.702L10.4786 13.2031ZM26.6883 17.4052L20.9583 20.826V19.5913C20.9579 19.4008 20.9817 19.2131 21.0302 19.0284C21.0792 18.844 21.1507 18.6688 21.2449 18.503C21.3395 18.3373 21.4537 18.1865 21.5877 18.0511C21.7217 17.9152 21.871 17.7988 22.0357 17.702L29.6593 13.2031L28.9463 14.8296C28.8295 15.0957 28.6933 15.3513 28.5371 15.5962C28.3812 15.8412 28.2074 16.073 28.0161 16.2917C27.8244 16.51 27.6174 16.7127 27.3947 16.8992C27.1724 17.0858 26.9369 17.2544 26.6883 17.4052ZM19.18 22.6821C19.1785 22.681 19.1793 22.6777 19.1822 22.6777H19.1833C19.1825 22.6818 19.1811 22.6836 19.18 22.6821Z" fill="#8BBE1B"/>
<path d="M49.9747 12.3202V13.8743H47.4154V21.9201H45.489V13.8743H42.9298V12.3202H49.9747Z" fill="black"/>
<path d="M57.2692 20.0909H53.4441L52.8112 21.9201H50.7885L54.2422 12.3064H56.485L59.9386 21.9201H57.9022L57.2692 20.0909ZM56.7464 18.5505L55.3567 14.5345L53.967 18.5505H56.7464Z" fill="black"/>
<path d="M69.444 21.9201H67.5176L63.1559 15.3322V21.9201H61.2295V12.3064H63.1559L67.5176 18.9081V12.3064H69.444V21.9201Z" fill="black"/>
<path d="M74.705 12.3202C75.714 12.3202 76.5992 12.5173 77.3605 12.9116C78.1311 13.3058 78.7227 13.8697 79.1355 14.6032C79.5575 15.3276 79.7685 16.1711 79.7685 17.1339C79.7685 18.0966 79.5575 18.9402 79.1355 19.6645C78.7227 20.3797 78.1311 20.9345 77.3605 21.3287C76.5992 21.723 75.714 21.9201 74.705 21.9201H71.3476V12.3202H74.705ZM74.6362 20.2835C75.6452 20.2835 76.4249 20.0084 76.9753 19.4582C77.5257 18.9081 77.8009 18.1333 77.8009 17.1339C77.8009 16.1345 77.5257 15.3551 76.9753 14.7958C76.4249 14.2273 75.6452 13.9431 74.6362 13.9431H73.274V20.2835H74.6362Z" fill="black"/>
<path d="M89.1772 12.3202V21.9201H87.2509V17.8353H83.1368V21.9201H81.2104V12.3202H83.1368V16.2674H87.2509V12.3202H89.1772Z" fill="black"/>
<path d="M92.972 12.3202V18.2617C92.972 18.9127 93.1417 19.4124 93.4811 19.7608C93.8205 20.1001 94.2975 20.2697 94.9121 20.2697C95.5359 20.2697 96.0175 20.1001 96.3569 19.7608C96.6963 19.4124 96.866 18.9127 96.866 18.2617V12.3202H98.8061V18.2479C98.8061 19.064 98.6272 19.7562 98.2695 20.3247C97.9209 20.884 97.4485 21.3058 96.8522 21.59C96.2652 21.8743 95.6093 22.0164 94.8846 22.0164C94.1691 22.0164 93.5178 21.8743 92.9308 21.59C92.3529 21.3058 91.8942 20.884 91.5548 20.3247C91.2154 19.7562 91.0457 19.064 91.0457 18.2479V12.3202H92.972Z" fill="black"/>
<path d="M105.621 21.9201L103.502 18.1792H102.594V21.9201H100.667V12.3202H104.272C105.015 12.3202 105.648 12.4531 106.171 12.719C106.694 12.9757 107.084 13.3287 107.341 13.778C107.607 14.2181 107.74 14.7133 107.74 15.2634C107.74 15.8961 107.556 16.4691 107.189 16.9826C106.822 17.4869 106.277 17.8353 105.552 18.0279L107.85 21.9201H105.621ZM102.594 16.735H104.203C104.726 16.735 105.116 16.6113 105.373 16.3637C105.63 16.107 105.758 15.754 105.758 15.3047C105.758 14.8646 105.63 14.5253 105.373 14.2869C105.116 14.0393 104.726 13.9156 104.203 13.9156H102.594V16.735Z" fill="black"/>
<path d="M53.8237 27.1796C53.7329 26.9714 53.5936 26.8085 53.4058 26.6908C53.2211 26.5701 53.003 26.5097 52.7516 26.5097C52.5154 26.5097 52.3034 26.564 52.1156 26.6727C51.9278 26.7813 51.7794 26.9367 51.6704 27.1389C51.5614 27.338 51.5069 27.5704 51.5069 27.8359C51.5069 28.1015 51.5614 28.3353 51.6704 28.5375C51.7794 28.7397 51.9278 28.8951 52.1156 29.0037C52.3034 29.1124 52.5154 29.1667 52.7516 29.1667C52.9727 29.1667 53.1711 29.1199 53.3467 29.0264C53.5254 28.9298 53.6678 28.794 53.7738 28.619C53.8828 28.441 53.9449 28.2343 53.96 27.9989H52.6244V27.7409H54.2962V27.9717C54.2811 28.2493 54.2054 28.5013 54.0691 28.7276C53.9328 28.9509 53.7495 29.1274 53.5194 29.2572C53.2922 29.387 53.0363 29.4518 52.7516 29.4518C52.4578 29.4518 52.1913 29.3839 51.9521 29.2481C51.7128 29.1093 51.5235 28.9177 51.3842 28.6733C51.2479 28.4259 51.1798 28.1467 51.1798 27.8359C51.1798 27.5251 51.2479 27.2475 51.3842 27.0031C51.5235 26.7557 51.7128 26.564 51.9521 26.4283C52.1913 26.2894 52.4578 26.22 52.7516 26.22C53.0908 26.22 53.3876 26.3045 53.642 26.4735C53.8964 26.6425 54.0812 26.8779 54.1963 27.1796H53.8237Z" fill="#63AA55"/>
<path d="M55.1967 27.3878C55.2664 27.2339 55.3724 27.1147 55.5147 27.0303C55.6601 26.9458 55.8373 26.9035 56.0463 26.9035V27.2339H55.96C55.7298 27.2339 55.545 27.2958 55.4057 27.4195C55.2664 27.5432 55.1967 27.7499 55.1967 28.0396V29.4201H54.8787V26.9488H55.1967V27.3878Z" fill="#63AA55"/>
<path d="M57.6104 29.4564C57.3772 29.4564 57.1667 29.4051 56.979 29.3025C56.7942 29.1968 56.6473 29.049 56.5383 28.8589C56.4323 28.6658 56.3793 28.441 56.3793 28.1845C56.3793 27.928 56.4338 27.7047 56.5428 27.5146C56.6519 27.3214 56.8003 27.1736 56.988 27.071C57.1758 26.9654 57.3863 26.9126 57.6195 26.9126C57.8527 26.9126 58.0632 26.9654 58.251 27.071C58.4418 27.1736 58.5902 27.3214 58.6962 27.5146C58.8052 27.7047 58.8597 27.928 58.8597 28.1845C58.8597 28.4379 58.8052 28.6612 58.6962 28.8544C58.5871 29.0475 58.4372 29.1968 58.2464 29.3025C58.0556 29.4051 57.8436 29.4564 57.6104 29.4564ZM57.6104 29.1803C57.774 29.1803 57.9254 29.144 58.0647 29.0716C58.204 28.9962 58.3161 28.8845 58.4009 28.7367C58.4887 28.5858 58.5326 28.4017 58.5326 28.1845C58.5326 27.9672 58.4902 27.7846 58.4054 27.6368C58.3206 27.4859 58.2086 27.3743 58.0693 27.3018C57.9299 27.2264 57.7785 27.1887 57.615 27.1887C57.4514 27.1887 57.3 27.2264 57.1607 27.3018C57.0214 27.3743 56.9093 27.4859 56.8245 27.6368C56.7427 27.7846 56.7018 27.9672 56.7018 28.1845C56.7018 28.4017 56.7427 28.5858 56.8245 28.7367C56.9093 28.8845 57.0198 28.9962 57.1561 29.0716C57.2954 29.144 57.4469 29.1803 57.6104 29.1803Z" fill="#63AA55"/>
<path d="M62.7103 26.9488L61.9335 29.4201H61.6155L60.9295 27.3471L60.2435 29.4201H59.921L59.1441 26.9488H59.4667L60.0845 29.0988L60.7796 26.9488H61.0976L61.7836 29.1033L62.3969 26.9488H62.7103Z" fill="#63AA55"/>
<path d="M65.876 27.7861C66.0547 27.8193 66.2061 27.9099 66.3303 28.0577C66.4545 28.2056 66.5166 28.3776 66.5166 28.5737C66.5166 28.7337 66.4757 28.8785 66.3939 29.0083C66.3152 29.135 66.1986 29.2361 66.0441 29.3115C65.8897 29.3839 65.7049 29.4201 65.4899 29.4201H64.3905V26.2563H65.4581C65.7791 26.2563 66.0229 26.3302 66.1895 26.478C66.3591 26.6259 66.4439 26.8175 66.4439 27.0529C66.4439 27.249 66.3909 27.409 66.2849 27.5327C66.1789 27.6534 66.0426 27.7379 65.876 27.7861ZM64.7085 27.6549H65.449C65.664 27.6549 65.8291 27.6051 65.9442 27.5055C66.0623 27.4029 66.1213 27.2626 66.1213 27.0846C66.1213 26.9096 66.0623 26.7723 65.9442 26.6727C65.8291 26.5731 65.6595 26.5233 65.4354 26.5233H64.7085V27.6549ZM65.4672 29.1531C65.6973 29.1531 65.876 29.0988 66.0032 28.9901C66.1335 28.8815 66.1986 28.7321 66.1986 28.542C66.1986 28.3519 66.1304 28.2011 65.9941 28.0894C65.8609 27.9747 65.6807 27.9174 65.4535 27.9174H64.7085V29.1531H65.4672Z" fill="#63AA55"/>
<path d="M69.3454 28.0577C69.3454 28.1664 69.3423 28.2493 69.3363 28.3067H67.2783C67.2874 28.4938 67.3328 28.6537 67.4146 28.7865C67.4964 28.9192 67.6039 29.0203 67.7372 29.0897C67.8704 29.1561 68.0158 29.1893 68.1733 29.1893C68.3792 29.1893 68.5519 29.1395 68.6912 29.0399C68.8335 28.9404 68.9274 28.8061 68.9728 28.6371H69.309C69.2484 28.8785 69.1182 29.0761 68.9183 29.23C68.7215 29.3809 68.4731 29.4564 68.1733 29.4564C67.9401 29.4564 67.7311 29.4051 67.5464 29.3025C67.3616 29.1968 67.2162 29.049 67.1102 28.8589C67.0073 28.6658 66.9558 28.441 66.9558 28.1845C66.9558 27.928 67.0073 27.7032 67.1102 27.51C67.2132 27.3169 67.3571 27.1691 67.5418 27.0665C67.7266 26.9639 67.9371 26.9126 68.1733 26.9126C68.4095 26.9126 68.6155 26.9639 68.7911 27.0665C68.9698 27.1691 69.1061 27.3079 69.2 27.4829C69.2969 27.6549 69.3454 27.8465 69.3454 28.0577ZM69.0228 28.0487C69.0258 27.8646 68.988 27.7077 68.9092 27.5779C68.8335 27.4482 68.729 27.3501 68.5958 27.2837C68.4625 27.2173 68.3172 27.1841 68.1597 27.1841C67.9234 27.1841 67.722 27.2596 67.5555 27.4105C67.3889 27.5613 67.2965 27.7741 67.2783 28.0487H69.0228Z" fill="#63AA55"/>
<path d="M70.3406 27.2158V28.7503C70.3406 28.9011 70.3694 29.0052 70.4269 29.0626C70.4844 29.1199 70.5859 29.1486 70.7313 29.1486H71.022V29.4201H70.6813C70.4572 29.4201 70.2906 29.3688 70.1816 29.2663C70.0726 29.1606 70.018 28.9886 70.018 28.7503V27.2158H69.6728V26.9488H70.018V26.3287H70.3406V26.9488H71.022V27.2158H70.3406Z" fill="#63AA55"/>
<path d="M71.9599 27.2158V28.7503C71.9599 28.9011 71.9887 29.0052 72.0462 29.0626C72.1038 29.1199 72.2052 29.1486 72.3506 29.1486H72.6413V29.4201H72.3006C72.0765 29.4201 71.9099 29.3688 71.8009 29.2663C71.6919 29.1606 71.6373 28.9886 71.6373 28.7503V27.2158H71.2921V26.9488H71.6373V26.3287H71.9599V26.9488H72.6413V27.2158H71.9599Z" fill="#63AA55"/>
<path d="M75.41 28.0577C75.41 28.1664 75.407 28.2493 75.4009 28.3067H73.343C73.352 28.4938 73.3975 28.6537 73.4792 28.7865C73.561 28.9192 73.6685 29.0203 73.8018 29.0897C73.9351 29.1561 74.0804 29.1893 74.2379 29.1893C74.4439 29.1893 74.6165 29.1395 74.7558 29.0399C74.8982 28.9404 74.992 28.8061 75.0375 28.6371H75.3736C75.3131 28.8785 75.1828 29.0761 74.983 29.23C74.7861 29.3809 74.5378 29.4564 74.2379 29.4564C74.0047 29.4564 73.7957 29.4051 73.611 29.3025C73.4262 29.1968 73.2809 29.049 73.1749 28.8589C73.0719 28.6658 73.0204 28.441 73.0204 28.1845C73.0204 27.928 73.0719 27.7032 73.1749 27.51C73.2778 27.3169 73.4217 27.1691 73.6065 27.0665C73.7912 26.9639 74.0017 26.9126 74.2379 26.9126C74.4742 26.9126 74.6801 26.9639 74.8558 27.0665C75.0344 27.1691 75.1707 27.3079 75.2646 27.4829C75.3615 27.6549 75.41 27.8465 75.41 28.0577ZM75.0874 28.0487C75.0905 27.8646 75.0526 27.7077 74.9739 27.5779C74.8982 27.4482 74.7937 27.3501 74.6604 27.2837C74.5272 27.2173 74.3818 27.1841 74.2243 27.1841C73.9881 27.1841 73.7867 27.2596 73.6201 27.4105C73.4535 27.5613 73.3611 27.7741 73.343 28.0487H75.0874Z" fill="#63AA55"/>
<path d="M76.3098 27.3878C76.3795 27.2339 76.4855 27.1147 76.6278 27.0303C76.7732 26.9458 76.9504 26.9035 77.1593 26.9035V27.2339H77.073C76.8428 27.2339 76.6581 27.2958 76.5188 27.4195C76.3795 27.5432 76.3098 27.7499 76.3098 28.0396V29.4201H75.9918V26.9488H76.3098V27.3878Z" fill="#63AA55"/>
<path d="M82.1553 26.9488L81.3784 29.4201H81.0604L80.3745 27.3471L79.6885 29.4201H79.3659L78.5891 26.9488H78.9116L79.5295 29.0988L80.2245 26.9488H80.5425L81.2285 29.1033L81.8418 26.9488H82.1553Z" fill="#63AA55"/>
<path d="M82.7478 26.4826C82.6842 26.4826 82.6297 26.4599 82.5843 26.4147C82.5388 26.3694 82.5161 26.3136 82.5161 26.2472C82.5161 26.1808 82.5388 26.1265 82.5843 26.0843C82.6297 26.039 82.6842 26.0164 82.7478 26.0164C82.8114 26.0164 82.8659 26.039 82.9114 26.0843C82.9568 26.1265 82.9795 26.1808 82.9795 26.2472C82.9795 26.3136 82.9568 26.3694 82.9114 26.4147C82.8659 26.4599 82.8114 26.4826 82.7478 26.4826ZM82.9068 26.9488V29.4201H82.5888V26.9488H82.9068Z" fill="#63AA55"/>
<path d="M84.0403 27.2158V28.7503C84.0403 28.9011 84.0691 29.0052 84.1267 29.0626C84.1842 29.1199 84.2857 29.1486 84.431 29.1486H84.7218V29.4201H84.3811C84.1569 29.4201 83.9904 29.3688 83.8813 29.2663C83.7723 29.1606 83.7178 28.9886 83.7178 28.7503V27.2158H83.3725V26.9488H83.7178V26.3287H84.0403V26.9488H84.7218V27.2158H84.0403Z" fill="#63AA55"/>
<path d="M86.4274 26.9035C86.6152 26.9035 86.7833 26.9427 86.9317 27.0212C87.0831 27.0997 87.2012 27.2204 87.286 27.3833C87.3738 27.5432 87.4178 27.7394 87.4178 27.9717V29.4201H87.1043V28.0079C87.1043 27.7394 87.0362 27.5342 86.8999 27.3924C86.7666 27.2505 86.5834 27.1796 86.3502 27.1796C86.1109 27.1796 85.9201 27.2551 85.7778 27.4059C85.6354 27.5568 85.5642 27.7786 85.5642 28.0713V29.4201H85.2462V26.0707H85.5642V27.3697C85.643 27.2219 85.7581 27.1072 85.9095 27.0257C86.064 26.9443 86.2366 26.9035 86.4274 26.9035Z" fill="#63AA55"/>
<path d="M90.3081 26.2563C90.6594 26.2563 90.9608 26.3196 91.2121 26.4464C91.4635 26.5731 91.6558 26.7557 91.7891 26.994C91.9223 27.2324 91.989 27.5161 91.989 27.845C91.989 28.1709 91.9223 28.453 91.7891 28.6914C91.6558 28.9268 91.4635 29.1078 91.2121 29.2346C90.9608 29.3583 90.6594 29.4201 90.3081 29.4201H89.3677V26.2563H90.3081ZM90.3081 29.1576C90.7503 29.1576 91.0864 29.043 91.3166 28.8136C91.5498 28.5813 91.6664 28.2584 91.6664 27.845C91.6664 27.4286 91.5498 27.1042 91.3166 26.8718C91.0864 26.6365 90.7503 26.5188 90.3081 26.5188H89.6857V29.1576H90.3081Z" fill="#63AA55"/>
<path d="M92.4299 28.1799C92.4299 27.9265 92.4799 27.7047 92.5798 27.5146C92.6828 27.3214 92.8236 27.1736 93.0023 27.071C93.184 26.9654 93.3884 26.9126 93.6156 26.9126C93.8518 26.9126 94.0547 26.9669 94.2243 27.0755C94.397 27.1841 94.5211 27.323 94.5969 27.4919V26.9488H94.9149V29.4201H94.5969V28.8725C94.5181 29.0414 94.3924 29.1818 94.2198 29.2934C94.0502 29.402 93.8473 29.4564 93.611 29.4564C93.3869 29.4564 93.184 29.4036 93.0023 29.2979C92.8236 29.1923 92.6828 29.043 92.5798 28.8498C92.4799 28.6567 92.4299 28.4334 92.4299 28.1799ZM94.5969 28.1845C94.5969 27.9853 94.556 27.8103 94.4742 27.6594C94.3924 27.5085 94.2804 27.3924 94.138 27.3109C93.9987 27.2294 93.8443 27.1887 93.6746 27.1887C93.499 27.1887 93.3415 27.2279 93.2022 27.3064C93.0629 27.3848 92.9523 27.4995 92.8706 27.6504C92.7918 27.7982 92.7524 27.9747 92.7524 28.1799C92.7524 28.3821 92.7918 28.5601 92.8706 28.714C92.9523 28.8649 93.0629 28.9811 93.2022 29.0626C93.3415 29.141 93.499 29.1803 93.6746 29.1803C93.8443 29.1803 93.9987 29.1395 94.138 29.058C94.2804 28.9766 94.3924 28.8604 94.4742 28.7095C94.556 28.5586 94.5969 28.3836 94.5969 28.1845Z" fill="#63AA55"/>
<path d="M96.0543 27.2158V28.7503C96.0543 28.9011 96.083 29.0052 96.1406 29.0626C96.1981 29.1199 96.2996 29.1486 96.4449 29.1486H96.7357V29.4201H96.395C96.1709 29.4201 96.0043 29.3688 95.8953 29.2663C95.7862 29.1606 95.7317 28.9886 95.7317 28.7503V27.2158H95.3864V26.9488H95.7317V26.3287H96.0543V26.9488H96.7357V27.2158H96.0543Z" fill="#63AA55"/>
<path d="M97.1148 28.1799C97.1148 27.9265 97.1648 27.7047 97.2647 27.5146C97.3677 27.3214 97.5085 27.1736 97.6872 27.071C97.8689 26.9654 98.0733 26.9126 98.3005 26.9126C98.5367 26.9126 98.7396 26.9669 98.9092 27.0755C99.0819 27.1841 99.206 27.323 99.2818 27.4919V26.9488H99.5998V29.4201H99.2818V28.8725C99.203 29.0414 99.0773 29.1818 98.9047 29.2934C98.7351 29.402 98.5322 29.4564 98.2959 29.4564C98.0718 29.4564 97.8689 29.4036 97.6872 29.2979C97.5085 29.1923 97.3677 29.043 97.2647 28.8498C97.1648 28.6567 97.1148 28.4334 97.1148 28.1799ZM99.2818 28.1845C99.2818 27.9853 99.2409 27.8103 99.1591 27.6594C99.0773 27.5085 98.9653 27.3924 98.8229 27.3109C98.6836 27.2294 98.5291 27.1887 98.3595 27.1887C98.1839 27.1887 98.0264 27.2279 97.8871 27.3064C97.7478 27.3848 97.6372 27.4995 97.5554 27.6504C97.4767 27.7982 97.4373 27.9747 97.4373 28.1799C97.4373 28.3821 97.4767 28.5601 97.5554 28.714C97.6372 28.8649 97.7478 28.9811 97.8871 29.0626C98.0264 29.141 98.1839 29.1803 98.3595 29.1803C98.5291 29.1803 98.6836 29.1395 98.8229 29.058C98.9653 28.9766 99.0773 28.8604 99.1591 28.7095C99.2409 28.5586 99.2818 28.3836 99.2818 28.1845Z" fill="#63AA55"/>
</svg>
